<?xml version="1.0" encoding="UTF-8" standalone="no"?>
<svg
   width="512"
   height="512"
   version="1.1"
   id="svg376"
   xmlns="http://www.w3.org/2000/svg"
   xmlns:svg="http://www.w3.org/2000/svg">
  <defs
     id="defs380" />
  <path
     style="fill:#b9b9b9;fill-opacity:1"
     d="m 151.195,453.5 c 0.02,-1.65 0.244,-2.204 0.498,-1.231 0.254,0.973 0.237,2.323 -0.037,3 -0.274,0.677 -0.481,-0.119 -0.461,-1.769 z M 151.158,429 c 0,-1.375 0.227,-1.938 0.504,-1.25 0.278,0.688 0.278,1.813 0,2.5 -0.277,0.688 -0.504,0.125 -0.504,-1.25 z m 169.094,-2.5 c 0.011,-2.2 0.216,-2.982 0.455,-1.738 0.24,1.244 0.23,3.044 -0.02,4 -0.25,0.956 -0.446,-0.062 -0.435,-2.262 z m 77.943,0 c 0.02,-1.65 0.244,-2.204 0.498,-1.231 0.253,0.973 0.237,2.323 -0.037,3 -0.274,0.677 -0.482,-0.119 -0.461,-1.769 z M 15.079,400.417 c 0.048,-1.165 0.285,-1.402 0.604,-0.604 0.289,0.721 0.253,1.584 -0.079,1.916 -0.332,0.332 -0.568,-0.258 -0.525,-1.312 z M 460.158,270 c 0,-1.375 0.227,-1.938 0.504,-1.25 0.278,0.688 0.278,1.813 0,2.5 -0.277,0.688 -0.504,0.125 -0.504,-1.25 z M 303,198.5 c 1.292,-1.375 2.574,-2.5 2.849,-2.5 0.275,0 -0.557,1.125 -1.849,2.5 -1.292,1.375 -2.574,2.5 -2.849,2.5 -0.275,0 0.557,-1.125 1.849,-2.5 z M 273.232,195 c 0,-1.925 0.206,-2.712 0.457,-1.75 0.252,0.963 0.252,2.538 0,3.5 -0.251,0.963 -0.457,0.175 -0.457,-1.75 z M 34.079,144.417 c 0.048,-1.165 0.285,-1.402 0.604,-0.604 0.289,0.721 0.253,1.584 -0.079,1.916 -0.332,0.332 -0.568,-0.258 -0.525,-1.312 z M 47,88.622 c 0,-0.207 0.787,-0.995 1.75,-1.75 1.586,-1.243 1.621,-1.208 0.378,0.378 C 47.82,88.916 47,89.445 47,88.622 Z"
     id="path362" />
  <path
     style="fill:#a3a3a3;fill-opacity:1"
     d="m 136.079,464.417 c 0.048,-1.165 0.285,-1.402 0.604,-0.604 0.289,0.721 0.253,1.584 -0.079,1.916 -0.332,0.332 -0.568,-0.258 -0.525,-1.312 z m 15,-7 c 0.048,-1.165 0.285,-1.402 0.604,-0.604 0.289,0.721 0.253,1.584 -0.079,1.916 -0.332,0.332 -0.568,-0.258 -0.525,-1.312 z m 99,-14 c 0.048,-1.165 0.285,-1.402 0.604,-0.604 0.289,0.721 0.253,1.584 -0.079,1.916 -0.332,0.332 -0.568,-0.258 -0.525,-1.312 z m 0,-4 c 0.048,-1.165 0.285,-1.402 0.604,-0.604 0.289,0.721 0.253,1.584 -0.079,1.916 -0.332,0.332 -0.568,-0.258 -0.525,-1.312 z m 70,-8 c 0.048,-1.165 0.285,-1.402 0.604,-0.604 0.289,0.721 0.253,1.584 -0.079,1.916 -0.332,0.332 -0.568,-0.258 -0.525,-1.312 z m 78,-1 c 0.048,-1.165 0.285,-1.402 0.604,-0.604 0.289,0.721 0.253,1.584 -0.079,1.916 -0.332,0.332 -0.568,-0.258 -0.525,-1.312 z m -247,-5 c 0.048,-1.165 0.285,-1.402 0.604,-0.604 0.289,0.721 0.253,1.584 -0.079,1.916 -0.332,0.332 -0.568,-0.258 -0.525,-1.312 z M 296,358.687 c 0,-0.172 1.462,-1.635 3.25,-3.25 l 3.25,-2.937 -2.937,3.25 c -2.738,3.03 -3.563,3.71 -3.563,2.937 z m 77.269,-3.38 c 0.973,-0.254 2.323,-0.237 3,0.037 0.677,0.274 -0.119,0.481 -1.769,0.461 -1.65,-0.02 -2.204,-0.244 -1.231,-0.498 z m 86.81,-88.89 c 0.048,-1.165 0.285,-1.402 0.604,-0.604 0.289,0.721 0.253,1.584 -0.079,1.916 -0.332,0.332 -0.568,-0.258 -0.525,-1.312 z m -260.267,-47.1 c 0.722,-0.289 1.585,-0.253 1.917,0.079 0.332,0.332 -0.258,0.568 -1.312,0.525 -1.165,-0.048 -1.402,-0.285 -0.604,-0.604 z m 157.267,-60.9 c 0.048,-1.165 0.285,-1.402 0.604,-0.604 0.289,0.721 0.253,1.584 -0.079,1.916 -0.332,0.332 -0.568,-0.258 -0.525,-1.312 z m -338,-12 c 0.048,-1.165 0.285,-1.402 0.604,-0.604 0.289,0.721 0.253,1.584 -0.079,1.916 -0.332,0.332 -0.568,-0.258 -0.525,-1.312 z M 366.195,76.5 c 0.02,-1.65 0.244,-2.204 0.498,-1.231 0.254,0.973 0.237,2.323 -0.037,3 -0.274,0.677 -0.481,-0.119 -0.461,-1.769 z m 87.618,-6.183 c 0.721,-0.289 1.584,-0.253 1.916,0.079 0.332,0.332 -0.258,0.568 -1.312,0.525 -1.165,-0.048 -1.402,-0.285 -0.604,-0.604 z"
     id="path364" />
  <path
     style="fill:#8c8c8c;fill-opacity:1"
     d="m 136.079,461.417 c 0.048,-1.165 0.285,-1.402 0.604,-0.604 0.289,0.721 0.253,1.584 -0.079,1.916 -0.332,0.332 -0.568,-0.258 -0.525,-1.312 z M 151.158,461 c 0,-1.375 0.227,-1.938 0.504,-1.25 0.278,0.688 0.278,1.813 0,2.5 -0.277,0.688 -0.504,0.125 -0.504,-1.25 z m 113.921,-18.583 c 0.048,-1.165 0.285,-1.402 0.604,-0.604 0.289,0.721 0.253,1.584 -0.079,1.916 -0.332,0.332 -0.568,-0.258 -0.525,-1.312 z m 188,0 c 0.048,-1.165 0.285,-1.402 0.604,-0.604 0.289,0.721 0.253,1.584 -0.079,1.916 -0.332,0.332 -0.568,-0.258 -0.525,-1.312 z m 15,0 c 0.048,-1.165 0.285,-1.402 0.604,-0.604 0.289,0.721 0.253,1.584 -0.079,1.916 -0.332,0.332 -0.568,-0.258 -0.525,-1.312 z M 151.158,422 c 0,-1.375 0.227,-1.938 0.504,-1.25 0.278,0.688 0.278,1.813 0,2.5 -0.277,0.688 -0.504,0.125 -0.504,-1.25 z M 372.75,370.294 c 1.238,-0.238 3.263,-0.238 4.5,0 1.238,0.239 0.225,0.434 -2.25,0.434 -2.475,0 -3.487,-0.195 -2.25,-0.434 z m -2.938,-14.977 c 0.722,-0.289 1.585,-0.253 1.917,0.079 0.332,0.332 -0.258,0.568 -1.312,0.525 -1.165,-0.048 -1.402,-0.285 -0.604,-0.604 z m -150.733,-10.9 c 0.048,-1.165 0.285,-1.402 0.604,-0.604 0.289,0.721 0.253,1.584 -0.079,1.916 -0.332,0.332 -0.568,-0.258 -0.525,-1.312 z M 435.5,330 c 0.995,-1.1 2.035,-2 2.31,-2 0.275,0 -0.315,0.9 -1.31,2 -0.995,1.1 -2.035,2 -2.31,2 -0.275,0 0.315,-0.9 1.31,-2 z m 23.75,-126.69 c 0.963,-0.25 2.538,-0.25 3.5,0 0.963,0.252 0.175,0.458 -1.75,0.458 -1.925,0 -2.712,-0.206 -1.75,-0.457 z m -0.488,-15.017 c 1.244,-0.24 3.044,-0.23 4,0.02 0.956,0.25 -0.062,0.446 -2.262,0.435 -2.2,-0.011 -2.982,-0.216 -1.738,-0.455 z M 357.252,153.5 c 0.011,-2.2 0.216,-2.982 0.455,-1.738 0.24,1.244 0.23,3.044 -0.02,4 -0.25,0.956 -0.446,-0.062 -0.435,-2.262 z M 19.08,143.417 c 0.048,-1.165 0.285,-1.402 0.604,-0.604 0.289,0.721 0.253,1.584 -0.079,1.916 -0.332,0.332 -0.568,-0.258 -0.525,-1.312 z M 103,112.622 c 0,-0.207 0.787,-0.995 1.75,-1.75 1.586,-1.243 1.621,-1.208 0.378,0.378 -1.307,1.666 -2.128,2.195 -2.128,1.372 z"
     id="path366" />
  <path
     style="fill:#767676;fill-opacity:1"
     d="m 151.079,464.417 c 0.048,-1.165 0.285,-1.402 0.604,-0.604 0.289,0.721 0.253,1.584 -0.079,1.916 -0.332,0.332 -0.568,-0.258 -0.525,-1.312 z M 136.158,458 c 0,-1.375 0.227,-1.938 0.504,-1.25 0.278,0.688 0.278,1.813 0,2.5 -0.277,0.688 -0.504,0.125 -0.504,-1.25 z m 0.037,-34.5 c 0.02,-1.65 0.244,-2.204 0.498,-1.231 0.254,0.973 0.237,2.323 -0.037,3 -0.274,0.677 -0.481,-0.119 -0.461,-1.769 z m 276.884,-1.083 c 0.048,-1.165 0.285,-1.402 0.604,-0.604 0.289,0.721 0.254,1.584 -0.079,1.916 -0.332,0.332 -0.568,-0.258 -0.525,-1.312 z m -108,-1 c 0.048,-1.165 0.285,-1.402 0.604,-0.604 0.289,0.721 0.254,1.584 -0.079,1.916 -0.332,0.332 -0.568,-0.258 -0.525,-1.312 z m -305,-18 c 0.048,-1.165 0.285,-1.402 0.604,-0.604 0.289,0.721 0.253,1.584 -0.079,1.916 -0.332,0.332 -0.568,-0.258 -0.525,-1.312 z M 304.75,158.337 c 0.688,-0.277 1.813,-0.277 2.5,0 0.688,0.278 0.125,0.505 -1.25,0.505 -1.375,0 -1.938,-0.227 -1.25,-0.504 z m 36.888,-7.837 c 0.317,-0.825 0.753,-1.5 0.969,-1.5 0.216,0 0.393,0.675 0.393,1.5 0,0.825 -0.436,1.5 -0.969,1.5 -0.532,0 -0.71,-0.675 -0.393,-1.5 z M 481.5,126 c 0.995,-1.1 2.035,-2 2.31,-2 0.275,0 -0.315,0.9 -1.31,2 -0.995,1.1 -2.035,2 -2.31,2 -0.275,0 0.315,-0.9 1.31,-2 z M 297.812,98.317 c 0.722,-0.289 1.585,-0.253 1.917,0.079 0.332,0.332 -0.258,0.568 -1.312,0.525 -1.165,-0.048 -1.402,-0.285 -0.604,-0.604 z m 4,0 c 0.722,-0.289 1.585,-0.253 1.917,0.079 0.332,0.332 -0.258,0.568 -1.312,0.525 -1.165,-0.048 -1.402,-0.285 -0.604,-0.604 z m 79.267,-21.9 c 0.048,-1.165 0.285,-1.402 0.604,-0.605 0.289,0.722 0.253,1.585 -0.079,1.917 -0.332,0.332 -0.568,-0.258 -0.525,-1.312 z m 71.683,-21.124 c 1.244,-0.24 3.044,-0.23 4,0.02 0.956,0.25 -0.062,0.446 -2.262,0.435 -2.2,-0.011 -2.982,-0.216 -1.738,-0.455 z"
     id="path368" />
  <path
     style="fill:#606060;fill-opacity:1"
     d="m 136.158,454 c 0,-1.375 0.227,-1.938 0.504,-1.25 0.278,0.688 0.278,1.813 0,2.5 -0.277,0.688 -0.504,0.125 -0.504,-1.25 z m 168.921,-23.583 c 0.048,-1.165 0.285,-1.402 0.604,-0.604 0.289,0.721 0.253,1.584 -0.079,1.916 -0.332,0.332 -0.568,-0.258 -0.525,-1.312 z M 413.252,427.5 c 0.011,-2.2 0.216,-2.982 0.455,-1.738 0.24,1.244 0.23,3.044 -0.02,4 -0.25,0.956 -0.446,-0.062 -0.435,-2.262 z M 136.158,428 c 0,-1.375 0.227,-1.938 0.504,-1.25 0.278,0.688 0.278,1.813 0,2.5 -0.277,0.688 -0.504,0.125 -0.504,-1.25 z M 445.5,341 c 0.995,-1.1 2.035,-2 2.31,-2 0.275,0 -0.315,0.9 -1.31,2 -0.995,1.1 -2.035,2 -2.31,2 -0.275,0 0.315,-0.9 1.31,-2 z M 274.079,275.417 c 0.048,-1.165 0.285,-1.402 0.604,-0.604 0.289,0.721 0.253,1.584 -0.079,1.916 -0.332,0.332 -0.568,-0.258 -0.525,-1.312 z m 34.733,-117.1 c 0.722,-0.289 1.585,-0.253 1.917,0.079 0.332,0.332 -0.258,0.568 -1.312,0.525 -1.165,-0.048 -1.402,-0.285 -0.604,-0.604 z M 470,116.622 c 0,-0.207 0.787,-0.995 1.75,-1.75 1.586,-1.243 1.621,-1.208 0.378,0.378 -1.307,1.666 -2.128,2.195 -2.128,1.372 z M 495.195,95.5 c 0.02,-1.65 0.244,-2.204 0.498,-1.231 0.254,0.973 0.237,2.323 -0.037,3 -0.274,0.677 -0.481,-0.119 -0.461,-1.769 z"
     id="path370" />
  <path
     style="fill:#494949;fill-opacity:1"
     d="m 136.378,441 c 0,-6.325 0.163,-8.912 0.361,-5.75 0.198,3.163 0.198,8.338 0,11.5 -0.198,3.163 -0.36,0.575 -0.36,-5.75 z m 168.78,-14 c 0,-1.375 0.227,-1.938 0.504,-1.25 0.278,0.688 0.278,1.813 0,2.5 -0.277,0.688 -0.504,0.125 -0.504,-1.25 z M 0.078,373.417 c 0.049,-1.165 0.286,-1.402 0.605,-0.604 0.289,0.721 0.253,1.584 -0.079,1.916 -0.332,0.332 -0.568,-0.258 -0.525,-1.312 z M 285,348.622 c 0,-0.207 0.787,-0.995 1.75,-1.75 1.586,-1.243 1.621,-1.208 0.378,0.378 -1.307,1.666 -2.128,2.195 -2.128,1.372 z m -10.921,-76.205 c 0.048,-1.165 0.285,-1.402 0.604,-0.605 0.289,0.722 0.253,1.585 -0.079,1.917 -0.332,0.332 -0.568,-0.258 -0.525,-1.312 z M 111.5,125 c 0.995,-1.1 2.035,-2 2.31,-2 0.275,0 -0.315,0.9 -1.31,2 -0.995,1.1 -2.035,2 -2.31,2 -0.275,0 0.315,-0.9 1.31,-2 z M 338.872,98.25 c -1.243,-1.586 -1.208,-1.621 0.378,-0.378 0.963,0.755 1.75,1.543 1.75,1.75 0,0.823 -0.821,0.294 -2.128,-1.372 z M 117.75,52.338 c 0.688,-0.278 1.813,-0.278 2.5,0 0.688,0.277 0.125,0.504 -1.25,0.504 -1.375,0 -1.938,-0.227 -1.25,-0.504 z"
     id="path372" />
  <path
     style="fill:#333333;fill-opacity:1"
     d="M 59.5,479.528 C 36.583,475.247 18.236,461.238 8.388,440.5 3.59,430.397 2.142,423.619 0.92,405.55 -1.474,370.11 3.216,324.166 13.483,282.5 c 5.061,-20.541 11.7,-41.937 14.04,-45.25 2.227,-3.15 8.721,-3.167 10.92,-0.028 2.237,3.194 2.046,4.5 -2.92,19.923 -8.246,25.608 -14.606,54.91 -18.2,83.855 -2.293,18.469 -2.608,70.983 -0.483,80.5 4.63,20.738 20.764,37.585 41.205,43.025 3.433,0.913 10.314,1.456 18.563,1.463 L 89.716,466 85.223,457.346 C 70.781,429.526 65.876,391.548 71.62,352 c 1.14,-7.851 2.055,-11.068 3.627,-12.75 4.173,-4.466 11.753,-1.538 11.753,4.54 0,1.535 -0.725,7.947 -1.612,14.25 -2.228,15.846 -1.427,47.285 1.56,61.204 3.473,16.186 8.323,28.174 16.389,40.506 l 4.087,6.25 h 29.34 l 0.523,-35.75 c 0.41,-28.033 0.955,-38.88 2.527,-50.25 3.1,-22.427 6.762,-36.662 10.486,-40.75 2.56,-2.811 7.024,-2.926 9.7,-0.25 2.393,2.393 2.52,5.276 0.484,11.045 -5.456,15.464 -8.475,42.95 -9.192,83.705 L 150.724,466 h 39.131 l 5.053,-7.554 c 12.51,-18.704 20.84,-43.947 24.072,-72.946 0.552,-4.95 1.007,-16.988 1.012,-26.75 0.008,-16.41 0.159,-17.9 2.008,-19.75 2.804,-2.804 7.13,-2.554 10.076,0.582 2.403,2.559 2.423,2.751 2.331,22.25 -0.178,37.767 -7.737,70.78 -21.889,95.589 -2.485,4.356 -4.518,8.069 -4.518,8.25 0,0.18 11.287,0.329 25.083,0.329 13.796,0 24.912,-0.337 24.702,-0.75 -6.533,-12.852 -6.292,-11.788 -6.177,-27.25 0.285,-38.038 15.575,-73.435 41.892,-96.979 2.75,-2.46 5.144,-4.552 5.32,-4.65 0.175,-0.097 -1.76,-3.002 -4.303,-6.455 -13.47,-18.298 -19.659,-37.337 -19.638,-60.416 0.011,-13.344 1.533,-22.09 5.946,-34.183 l 2.919,-7.997 -2.368,-3.91 c -5.11,-8.441 -6.882,-15.974 -6.8,-28.91 0.066,-10.205 0.477,-13.197 2.746,-20 3.224,-9.67 9.386,-21 13.73,-25.247 l 3.19,-3.119 -4.805,-7.317 C 283.318,129.502 267.565,113.725 258.5,107.835 238.452,94.81 218.861,89 194.977,89 c -32.04,0 -58.292,11.13 -81.55,34.577 -21.01,21.18 -41.405,50.44 -57.366,82.301 -3.82,7.625 -7.683,14.147 -8.585,14.493 C 42.624,222.233 37,218.837 37,214.045 c 0,-1.28 3.15,-8.625 7,-16.324 3.85,-7.699 7,-14.11 7,-14.248 0,-0.138 -1.667,-0.563 -3.703,-0.945 -9.402,-1.764 -18.609,-9.695 -23.576,-20.31 -2.54,-5.429 -3.204,-8.29 -3.536,-15.239 -0.942,-19.686 8.26,-38.375 29.313,-59.538 17.495,-17.586 35.772,-28.518 55.224,-33.029 9.695,-2.248 25.88,-2.013 35.778,0.52 9.758,2.498 24.45,9.59 31.639,15.272 l 5.325,4.21 17.018,0.125 c 23.13,0.171 39.585,3.942 58.328,13.365 l 7.904,3.974 7.692,-2.442 c 44.882,-14.253 77.197,0.219 86.112,38.564 1.002,4.311 1.945,13.452 2.218,21.5 l 0.475,14 3.098,3.257 c 3.003,3.158 3.28,3.238 9.144,2.642 7.387,-0.752 22.441,0.956 32.547,3.692 9.707,2.627 23.896,9.423 31.534,15.1 l 6.034,4.487 3.966,-1.453 c 6.27,-2.297 23.665,-2.727 31.966,-0.79 9.518,2.22 24.538,9.673 29.914,14.843 5.61,5.394 7.038,10.333 6.138,21.222 -0.954,11.556 -3.163,19.841 -7.863,29.5 -4.994,10.262 -14.034,19.83 -23.439,24.809 -4.09,2.165 -6.25,3.924 -6.25,5.09 0,4.524 -4.45,18.362 -8.85,27.514 -5.867,12.208 -11.65,20.027 -22.037,29.799 l -7.841,7.376 4.23,5.302 c 5.14,6.441 12.805,19.175 15.62,25.952 1.825,4.388 1.91,5.317 0.722,7.797 -0.742,1.548 -2.567,3.243 -4.056,3.767 -4.786,1.683 -7.195,-0.425 -12.693,-11.102 -5.1,-9.904 -14.658,-23.221 -16.707,-23.275 -0.611,-0.016 -3.986,1.257 -7.5,2.829 -13.47,6.026 -21.776,7.606 -39.888,7.589 -14.011,-0.014 -17.782,-0.36 -25,-2.303 -10.518,-2.829 -25.153,-9.65 -33.53,-15.629 -3.48,-2.483 -6.83,-4.515 -7.442,-4.515 -1.927,0 -17.516,16.214 -21.984,22.866 -12.502,18.612 -19.794,41.007 -21.533,66.134 -1.007,14.545 2.619,22.394 12.657,27.397 4.926,2.454 6.077,2.603 20.135,2.603 13.821,0 14.856,-0.128 14.158,-1.75 -0.414,-0.963 -1.898,-5.35 -3.297,-9.75 -2.364,-7.43 -2.55,-9.426 -2.605,-28 -0.043,-14.554 0.305,-20.862 1.277,-23.164 1.651,-3.912 5.733,-5.83 9.42,-4.429 4.338,1.65 4.962,4.018 3.649,13.846 -1.39,10.407 -0.648,27.28 1.574,35.747 0.866,3.3 2.8,8.475 4.298,11.5 l 2.723,5.5 11.21,0.282 11.21,0.283 0.29,-31.998 c 0.324,-35.778 0.26,-35.467 7.29,-35.467 7.03,0 6.966,-0.31 7.29,35.467 l 0.29,31.998 11.21,-0.283 11.21,-0.282 2.723,-5.5 c 5.776,-11.665 8.01,-29.454 5.874,-46.772 -1.28,-10.374 -0.694,-12.67 3.648,-14.321 3.49,-1.327 7.607,0.41 9.268,3.91 0.79,1.665 1.453,8.758 1.745,18.683 0.508,17.183 -0.908,28.61 -4.817,38.896 -1.067,2.807 -1.94,5.216 -1.94,5.354 0,0.138 6.66,0.25 14.803,0.25 13.988,0 15.095,-0.145 20.091,-2.635 6.405,-3.192 10.559,-8.566 12.164,-15.737 1.136,-5.077 0.9,-9.348 -1.677,-30.253 -0.54,-4.392 -0.327,-5.43 1.493,-7.25 3.97,-3.97 10.277,-2.33 11.988,3.117 1.815,5.775 3.4,22.542 2.946,31.173 -0.36,6.875 -1.021,9.573 -3.649,14.911 -3.987,8.1 -11.949,15.637 -19.913,18.853 l -5.747,2.321 -186,0.168 c -149.492,0.134 -187.374,-0.09 -193,-1.14 z m 337,-126.49 c 28.918,-7.52 52.186,-30.193 61.103,-59.538 2.44,-8.03 2.735,-10.562 2.735,-23.5 0,-12.867 -0.302,-15.49 -2.678,-23.297 C 446.085,208.684 413.75,184 375.523,184 c -24.783,0 -46.05,9.194 -63.129,27.29 -9.262,9.814 -15.067,19.555 -19.492,32.71 -2.73,8.114 -3.266,11.355 -3.68,22.215 -0.411,10.783 -0.144,14.188 1.758,22.42 2.644,11.443 9.6,25.745 17.077,35.111 12.297,15.404 31.543,26.942 51.443,30.84 9.465,1.854 26.693,1.134 37,-1.547 z m -15.736,-51.982 c -3.546,-1.135 -9.764,-4.983 -9.764,-6.043 0,-0.453 -3.487,-0.591 -7.75,-0.307 -7.529,0.503 -7.89,0.422 -12.68,-2.844 -6.197,-4.225 -8.999,-9.426 -8.999,-16.703 0,-4.653 0.38,-5.72 2.77,-7.776 3.402,-2.927 5.602,-3.002 9.024,-0.31 2.112,1.66 2.635,2.92 2.635,6.345 0,8.187 6.266,10.29 10.53,3.534 2.961,-4.69 5.822,-6.074 9.736,-4.71 3.448,1.203 4.734,3.51 4.734,8.492 0,4.564 1.395,6.266 5.134,6.266 2.103,0 3.39,-0.98 5.58,-4.25 3.198,-4.773 6.845,-5.924 10.722,-3.384 3.427,2.245 3.694,5.98 0.84,11.708 -3.916,7.857 -14.492,12.547 -22.512,9.982 z m 44.891,-18.885 c -2.022,-2.234 -2.081,-5.98 -0.207,-13.022 1.786,-6.712 3.931,-9.149 8.052,-9.149 3.15,0 5.624,1.878 6.776,5.143 0.875,2.483 -2.952,16.147 -4.928,17.592 -2.541,1.858 -7.777,1.554 -9.693,-0.564 z m -106.02,-27.244 c -3.226,-2.537 -3.353,-5.392 -0.632,-14.202 1.678,-5.432 2.497,-6.69 5.045,-7.745 3.762,-1.558 7.455,-0.165 9.093,3.43 1.683,3.695 -1.542,15.974 -4.887,18.605 -3.213,2.527 -5.322,2.506 -8.62,-0.088 z m 163.507,5.276 c 9.255,-10.013 14.223,-23.627 13.65,-37.406 l -0.292,-7.028 -6.194,-3.741 c -9.28,-5.605 -19.184,-8.52 -28.97,-8.524 -4.49,-0.002 -8.468,0.3 -8.84,0.67 -0.372,0.37 1.114,3.07 3.301,6 10.703,14.332 19.203,37.311 19.203,51.913 0,5.45 1.733,5.05 8.142,-1.885 z m -178.697,-61.76 c 3.88,-3.882 9.927,-9.001 13.436,-11.377 6.634,-4.49 20.568,-11.404 25.413,-12.61 1.536,-0.382 2.627,-1.203 2.424,-1.825 -0.802,-2.458 -11.52,-8.796 -18.666,-11.038 -8.123,-2.549 -20.614,-4.184 -23.927,-3.133 -3.052,0.969 -8.859,10.971 -11.776,20.286 -2.249,7.182 -2.522,9.503 -2.118,18 0.255,5.365 1.024,11.104 1.708,12.754 l 1.245,3 2.603,-3.5 c 1.432,-1.925 5.778,-6.676 9.658,-10.557 z M 59.565,168.235 c 0.587,-0.404 4.268,-5.46 8.182,-11.235 17.796,-26.261 40.103,-50.45 56.724,-61.51 8.966,-5.965 19.934,-11.362 28.853,-14.195 3.107,-0.987 5.655,-2.12 5.662,-2.516 0.008,-0.397 -3.698,-2.494 -8.236,-4.66 C 131.156,64.765 112.33,64.72 92.381,73.979 81.058,79.235 73.012,84.944 62.2,95.4 c -14.457,13.978 -22.772,26.444 -26.736,40.081 -3.866,13.297 0.942,26.022 12.037,31.861 3.122,1.643 10.217,2.168 12.066,0.894 z M 342.52,144.75 c -0.376,-3.987 -1.322,-10.09 -2.101,-13.562 -5.42,-24.135 -22.794,-35.776 -48.184,-32.286 -4.804,0.66 -10.429,1.647 -12.5,2.192 l -3.765,0.992 8.84,8.707 c 8.704,8.574 16.838,19.133 21.92,28.457 2.12,3.89 3.088,4.75 5.342,4.75 5.075,0 17.656,2.838 23.571,5.318 3.222,1.35 6.241,2.506 6.71,2.569 0.468,0.062 0.543,-3.15 0.167,-7.137 z m -151.285,72.137 c -2.346,-1.161 -5.148,-3.234 -6.227,-4.605 -1.769,-2.25 -2.272,-2.385 -5.133,-1.388 -7.788,2.715 -16.936,0.217 -22.527,-6.151 -4.074,-4.64 -5.696,-9.754 -5.092,-16.046 0.798,-8.3 7.112,-11.421 12.402,-6.13 2.007,2.006 2.438,3.206 1.979,5.505 -0.795,3.973 1.009,7.538 4.557,9.008 2.54,1.052 3.294,0.947 5.604,-0.778 1.512,-1.128 3.194,-3.802 3.877,-6.16 1.204,-4.159 1.2,-4.167 -1.984,-5.499 -1.755,-0.733 -3.783,-2.049 -4.508,-2.923 -2.102,-2.534 -1.057,-7.743 2.01,-10.023 l 2.692,-2 12.308,3.218 C 206.546,176.93 208,177.803 208,183 c 0,4.945 -3.038,7.331 -8.702,6.834 -3.793,-0.334 -3.8,-0.327 -4.696,4.31 -1.071,5.541 -0.565,7.179 2.922,9.464 3.7,2.424 7.297,0.94 9.91,-4.086 5.017,-9.654 16.883,-5.074 13.49,5.208 -3.836,11.624 -18.575,17.659 -29.69,12.157 z m 55.103,-18.364 c -3.157,-2.21 -3.46,-5.27 -1.337,-13.54 2.535,-9.88 6.352,-13.006 12.114,-9.922 3.49,1.868 3.906,5.052 1.768,13.567 -2.655,10.582 -6.846,13.887 -12.545,9.895 z M 127,167 c -1.1,-1.1 -2,-3.173 -2,-4.606 0,-3.548 2.918,-14.578 4.298,-16.248 3.249,-3.93 9.82,-3.174 11.89,1.366 1.487,3.265 -1.477,16.777 -4.3,19.6 -2.469,2.469 -7.362,2.414 -9.888,-0.112 z m 271.434,-17.388 c -6.363,-2.824 -22.698,-32.114 -27.947,-50.112 -10.094,-34.614 3.016,-63.08 31.202,-67.75 14.984,-2.483 31.384,5.338 40.288,19.214 l 3.087,4.812 10.218,0.388 c 8.925,0.34 11.07,0.79 16.959,3.555 8.307,3.903 15.393,10.796 19.32,18.794 2.711,5.523 2.939,6.84 2.939,16.987 0,10.043 -0.246,11.5 -2.822,16.748 -9.258,18.86 -32.02,31.84 -63.413,36.16 -17.36,2.39 -26.342,2.752 -29.83,1.204 z m 26.004,-15.125 c 38.63,-5.064 61.637,-24.22 55.504,-46.214 -1.894,-6.79 -9.793,-14.557 -16.976,-16.69 -6.284,-1.867 -10.041,-1.975 -16.972,-0.488 -7.865,1.686 -9.513,0.85 -13.191,-6.695 -6.167,-12.646 -13.763,-17.9 -25.881,-17.9 -6.693,0 -8.154,0.355 -12.5,3.036 -9.82,6.057 -14.816,19.779 -12.597,34.596 2.018,13.474 8.836,30.235 18.354,45.118 4.206,6.577 4.424,6.75 8.517,6.75 2.311,0 9.395,-0.68 15.742,-1.513 z"
     id="path374" />
  <path
     style="opacity:0.68;fill:#000000;stroke-width:0.611708"
     d="M 77.381123,479.85969 C 61.569964,479.50095 58.749234,479.28693 54.598803,478.13109 34.120785,472.42824 18.449903,459.75212 9.5033329,441.65352 4.4236602,431.37753 2.8248644,424.94365 1.5366211,409.59388 0.72964423,399.97852 0.71871483,372.03706 1.5176971,361.21386 c 2.31972,-31.42347 7.0514297,-59.30856 15.2583559,-89.92115 3.434456,-12.81084 8.148695,-27.77082 9.983479,-31.68118 3.530633,-7.52463 13.803905,-4.72774 12.476017,3.39658 -0.20559,1.25785 -2.051258,7.65473 -4.101486,14.21531 -8.30763,26.58379 -15.235942,58.81724 -18.275953,85.02748 -1.325316,11.42655 -2.135771,46.45376 -1.453091,62.80134 0.637238,15.25941 0.726772,16.00316 2.601934,21.61443 3.383964,10.12622 7.8481,17.03115 16.016859,24.77419 7.091639,6.72205 16.033833,11.56737 24.990159,13.5409 2.393205,0.52734 9.450137,1.02998 17.620323,1.25504 l 13.628321,0.37539 -4.55075,-9.29259 c -9.760164,-19.9302 -14.151901,-37.38572 -15.752148,-62.60899 -1.095907,-17.27377 1.255739,-45.82201 4.35556,-52.87506 2.136967,-4.86227 7.454426,-5.79158 10.747271,-1.87825 1.877701,2.23152 1.875113,3.28044 -0.04722,19.11558 -1.296552,10.6803 -0.983052,43.09029 0.517738,53.52449 2.500879,17.3873 8.713543,33.94393 18.075944,48.17204 l 3.72329,5.65831 h 14.99812 14.99813 l 0.0106,-15.44564 c 0.0138,-20.02517 1.0282,-54.6521 1.84132,-62.85305 0.89184,-8.99506 3.97519,-27.2817 5.82749,-34.56153 1.72257,-6.77 3.94888,-12.12213 5.91132,-14.21105 2.9362,-3.12544 8.32975,-2.01924 10.03324,2.05781 0.97453,2.33237 1.13261,1.41412 -2.50678,14.56133 -4.37026,15.78746 -6.73523,41.37387 -7.35385,79.56085 -0.17986,11.10251 -0.45687,22.59498 -0.61558,25.53883 l -0.28858,5.35245 h 19.82017 19.82015 l 2.7115,-3.82318 c 12.70307,-17.91119 21.29482,-40.83377 25.53954,-68.1389 1.16621,-7.50185 2.2476,-26.30724 2.59226,-45.07888 l 0.15537,-8.4627 1.99771,-1.78341 c 2.36435,-2.11074 4.53535,-2.27114 7.36766,-0.54433 3.81474,2.32579 3.98072,3.48586 3.58597,25.06437 -0.42938,23.47127 -1.79197,35.5002 -5.99232,52.90016 -3.21366,13.31257 -7.07794,23.67103 -13.73656,36.82176 l -6.24853,12.34079 4.67791,0.43902 c 5.34012,0.50116 44.60328,-10e-4 45.18011,-0.57781 0.2088,-0.20879 -0.77462,-2.80846 -2.18536,-5.77703 -1.41154,-2.97026 -2.86055,-7.16537 -3.22224,-9.32891 -0.71531,-4.2788 -0.28421,-20.8893 0.74502,-28.70567 4.19319,-31.84501 18.84204,-60.91896 40.31809,-80.02033 2.85973,-2.54352 5.28286,-4.95656 5.38473,-5.36229 0.10186,-0.40573 -2.15957,-4.19392 -5.02539,-8.4182 -13.1862,-19.43667 -18.206,-35.43398 -18.26532,-58.20874 -0.0358,-13.7344 0.95955,-19.85336 5.35012,-32.8906 l 3.24838,-9.64567 -2.70298,-4.72948 c -5.11217,-8.94487 -6.62401,-16.50737 -6.20384,-31.03293 0.2673,-9.2406 0.40599,-10.15131 2.48273,-16.30284 3.60928,-10.69105 8.99223,-20.57764 14.28435,-26.23534 l 2.77675,-2.96857 -4.29755,-6.30279 C 282.837,128.64227 268.28325,113.99454 258.14098,107.24205 246.61641,99.569258 232.00456,93.556984 217.9724,90.714063 c -6.1759,-1.251242 -8.66971,-1.404625 -22.83739,-1.404625 -14.16769,0 -16.66149,0.153383 -22.8374,1.404625 -23.25917,4.712317 -43.42355,16.105467 -60.97783,34.453297 -20.161122,21.07251 -37.685995,46.27435 -54.413594,78.2501 -6.295883,12.03493 -8.455675,15.71045 -9.775161,16.6353 -1.929459,1.35239 -6.783817,-0.1925 -8.556257,-2.72301 -1.985083,-2.8341 -0.84702,-6.25311 7.86914,-23.64075 2.59115,-5.16902 4.583964,-9.72973 4.428476,-10.13493 -0.155488,-0.40519 -1.816444,-1.07995 -3.691013,-1.49947 -10.452028,-2.33905 -19.675444,-11.05965 -24.33715,-23.01039 -3.714992,-9.52375 -2.964565,-23.91838 1.881928,-36.09897 8.500955,-21.36526 34.697116,-48.268783 58.657676,-60.241567 15.647796,-7.819005 28.592195,-10.465298 44.839905,-9.166861 9.39657,0.750927 14.91883,2.143114 24.06095,6.065867 8.40887,3.608126 14.33837,6.988063 20.63978,11.765086 l 4.70463,3.566524 h 12.4699 c 26.43711,0 41.27048,3.108966 61.65072,12.921541 l 8.98011,4.3237 7.2695,-2.202451 c 15.43089,-4.675122 27.6792,-6.352754 38.41107,-5.261106 20.58917,2.094335 34.6421,11.909347 43.194,30.168077 4.47004,9.54374 6.22012,19.38821 7.05774,39.70073 l 0.39628,9.60986 2.96908,2.77723 2.96908,2.77723 h 8.7591 c 18.61049,0 32.53023,3.14267 47.75982,10.78279 7.62436,3.82484 10.17532,5.35785 15.82035,9.50724 l 4.08136,3.00002 3.60176,-1.21335 c 8.12241,-2.73624 24.19879,-3.02572 33.71038,-0.60701 8.93763,2.27276 23.43143,9.66161 28.43917,14.49811 5.48413,5.29662 7.00193,10.86379 5.92876,21.74627 -2.3417,23.74597 -13.08467,42.51193 -29.98855,52.38441 -6.54754,3.824 -7.0311,4.37125 -7.8659,8.90187 -1.65095,8.96005 -8.35048,25.70259 -13.69819,34.23263 -3.84304,6.12997 -9.63688,13.00351 -16.8942,20.0425 -4.08091,3.95815 -7.41984,7.3559 -7.41984,7.55055 0,0.19466 1.8878,2.87445 4.19512,5.9551 8.06567,10.76902 16.60296,26.13997 16.60296,29.89275 0,2.68771 -1.53803,5.09593 -4.001,6.26468 -4.35983,2.06888 -6.67077,0.2731 -11.84682,-9.20589 -6.58543,-12.06003 -15.58528,-24.71474 -17.57677,-24.71474 -0.52322,0 -4.43393,1.41312 -8.69048,3.14026 -15.40121,6.24925 -24.04533,7.63122 -44.39194,7.09713 -10.6238,-0.27887 -13.06926,-0.53447 -18.09514,-1.89132 -11.49386,-3.10301 -23.71387,-8.73806 -35.14099,-16.20465 -3.6831,-2.40658 -6.9072,-4.37559 -7.16466,-4.37559 -2.19007,0 -18.11292,16.76467 -23.23968,24.46833 -7.64307,11.48476 -14.85556,29.47969 -17.89792,44.65472 -3.06902,15.30803 -3.57773,29.79492 -1.27348,36.26545 1.58038,4.43781 6.27061,9.17058 11.79403,11.90098 l 4.65178,2.29952 h 14.50864 c 7.97974,0 14.71087,-0.20171 14.95806,-0.44825 0.24719,-0.24654 -0.69921,-3.96267 -2.10311,-8.25806 -3.39037,-10.37322 -3.93817,-15.76501 -3.59016,-35.3367 0.29232,-16.43978 0.5611,-18.29542 3.03201,-20.93326 3.44802,-3.68094 9.23242,-2.71303 10.70266,1.79088 0.55318,1.69461 0.582,3.62627 0.11406,7.64636 -0.93269,8.01279 -0.77636,24.60204 0.29857,31.6824 1.04776,6.90148 2.39559,11.23411 5.72547,18.40479 l 2.29736,4.94721 11.24158,0.4293 c 6.18287,0.23611 11.36096,0.30992 11.50686,0.16401 0.1459,-0.1459 0.47617,-14.14328 0.73391,-31.10528 0.43511,-28.63317 0.55281,-31.01246 1.64488,-33.24982 l 1.17624,-2.4098 4.09922,-0.1802 c 4.08193,-0.17944 4.1036,-0.17173 5.13689,1.82642 1.24645,2.41039 1.99295,19.86127 2.0466,47.84325 l 0.0339,17.68062 7.43654,-0.39986 c 4.09009,-0.21993 9.27455,-0.39986 11.52102,-0.39986 h 4.08448 l 2.54597,-5.35741 c 6.21924,-13.08695 7.80014,-27.10054 5.82914,-51.67138 -0.4827,-6.01748 0.26032,-7.99386 3.49132,-9.28665 1.98031,-0.79236 2.7567,-0.82516 4.6624,-0.19695 5.17715,1.70665 6.03098,5.80825 5.95083,28.58646 -0.0561,15.94223 -0.8653,21.61362 -4.58918,32.16416 -1.50615,4.26723 -1.71791,5.42663 -1.06658,5.83954 1.07729,0.68296 22.4218,0.65752 27.1898,-0.0324 10.32865,-1.49456 18.08601,-9.30391 19.84956,-19.98259 0.70195,-4.25044 0.58811,-6.01887 -1.79849,-27.93804 -0.54076,-4.96646 0.23726,-7.28985 2.90266,-8.66818 4.55723,-2.35664 8.65374,-0.0519 10.16289,5.71773 2.32175,8.87631 3.29849,31.58542 1.60653,37.35195 -3.35081,11.42023 -12.07217,20.94949 -23.8411,26.04961 l -4.85781,2.10517 -171.18635,-0.11394 C 172.46038,480.3204 87.306093,480.08488 77.381123,479.85969 Z M 388.43489,354.80011 c 18.29897,-2.6503 34.13923,-10.85163 47.75952,-24.7276 9.7274,-9.91002 16.48683,-21.1042 21.13115,-34.99494 2.28869,-6.84527 2.53862,-8.23145 2.9562,-16.39579 0.62371,-12.1945 -0.13067,-24.82523 -1.82728,-30.59451 -5.31276,-18.06592 -15.25772,-33.63881 -28.50786,-44.64068 -16.85841,-13.99788 -35.85127,-20.3149 -58.54179,-19.47098 -16.6922,0.62082 -30.3083,4.97152 -43.99956,14.059 -7.1529,4.74769 -19.73556,17.22756 -24.2134,24.01557 -6.58004,9.97479 -12.14076,23.8053 -13.4998,33.57648 -1.11056,7.98455 -0.82179,24.9155 0.52801,30.95876 3.36983,15.08721 11.53631,31.08748 21.18731,41.51145 12.53723,13.54136 31.5873,24.04435 48.88891,26.9542 5.06064,0.85111 21.54439,0.7041 28.13859,-0.25096 z m 95.56874,-95.12986 c 9.06033,-10.54747 13.00951,-21.69093 13.00951,-36.70917 v -7.23954 l -3.51732,-2.22372 c -5.50148,-3.47814 -12.85112,-6.85541 -18.19833,-8.36241 -4.01976,-1.13289 -6.47549,-1.38431 -13.75147,-1.40784 -7.49545,-0.0242 -8.88621,0.11595 -9.04246,0.9115 -0.10155,0.51708 1.88789,4.07068 4.42099,7.89688 9.8976,14.95015 15.98625,31.05512 17.52484,46.35459 0.36455,3.62502 0.96732,6.77966 1.3395,7.01031 1.19163,0.7385 4.16634,-1.51771 8.21474,-6.2306 z M 295.30997,209.05137 c 4.18335,-5.2778 14.80634,-15.59214 20.27647,-19.68732 6.03151,-4.51546 15.30458,-9.61886 23.30006,-12.82312 3.3644,-1.34831 6.39235,-2.89707 6.72879,-3.44168 0.89597,-1.45036 -2.95488,-4.5088 -10.39904,-8.25917 -8.00118,-4.03102 -16.12065,-6.11355 -25.53258,-6.54878 l -7.18132,-0.33208 -2.16256,2.36097 c -2.88086,3.14515 -7.83809,13.33024 -9.75831,20.04932 -1.27697,4.46824 -1.54841,6.7257 -1.5446,12.84588 0.006,9.50219 1.57702,19.35331 3.08657,19.35331 0.21922,0 1.65316,-1.5828 3.18652,-3.51733 z M 60.122694,168.04457 c 0.601057,-0.60106 3.683266,-4.79891 6.849353,-9.32855 12.699307,-18.1686 22.228654,-29.96068 34.265703,-42.40208 16.64175,-17.200767 29.8513,-26.209528 49.21963,-33.567218 4.66866,-1.773541 8.59106,-3.534823 8.71645,-3.913961 0.30155,-0.911779 -9.15847,-5.741544 -15.84213,-8.088118 -14.43354,-5.06749 -29.38568,-5.067252 -43.815135,6.73e-4 -11.546682,4.055453 -21.87141,10.363426 -32.944612,20.127757 -15.988889,14.098987 -27.064016,29.734677 -31.149018,43.975707 -2.831944,9.87266 -1.384531,19.4142 3.972114,26.18473 4.299805,5.43473 9.383991,8.03187 15.811642,8.07701 2.880865,0.0203 4.092531,-0.2425 4.916003,-1.06597 z M 342.86015,147.88053 c -0.003,-4.92523 -1.39041,-14.00419 -3.10302,-20.30469 -4.06054,-14.93828 -14.79364,-25.57623 -28.82043,-28.564962 -7.34858,-1.565784 -22.77701,-0.534243 -32.81812,2.194212 l -2.6556,0.7216 8.54847,8.7267 c 8.98278,9.17004 15.93505,17.9743 21.51143,27.24175 1.83639,3.05191 3.76327,5.67017 4.28196,5.81834 0.51869,0.14816 3.14522,0.57927 5.83674,0.95799 6.33866,0.89193 15.52493,3.2855 21.19804,5.52336 2.47155,0.97494 4.8378,1.78209 5.25835,1.79367 0.5385,0.0148 0.76391,-1.20005 0.76218,-4.10797 z"
     id="path637" />
  <path
     style="opacity:0.68;fill:#000000;stroke-width:0.611708"
     d="m 194.59914,217.72156 c -3.58999,-1.14689 -6.78597,-3.12256 -9.21299,-5.69523 -1.90124,-2.01535 -3.45864,-2.32366 -6.26867,-1.241 -0.94711,0.36491 -3.51127,0.67061 -5.69813,0.67934 -7.66691,0.0306 -14.88435,-4.30682 -18.6358,-11.19947 -2.42985,-4.46443 -2.89215,-11.25598 -1.04972,-15.4211 2.40109,-5.42807 6.98979,-5.94397 11.11178,-1.24929 1.59595,1.81769 1.77567,2.39344 1.46182,4.68324 -0.68269,4.98071 2.84606,9.6015 7.33682,9.60736 2.59161,0.003 6.13191,-3.79837 7.3468,-7.88934 0.53411,-1.79856 0.83822,-3.48513 0.6758,-3.74794 -0.16243,-0.26281 -1.81868,-1.33757 -3.68056,-2.38835 -3.89651,-2.19905 -4.90235,-3.87291 -4.2897,-7.13863 0.46941,-2.50217 3.81034,-6.36034 5.50765,-6.36034 2.00798,0 21.97718,5.60049 24.4288,6.85122 3.55049,1.81133 4.11973,2.74162 3.83322,6.26452 -0.35496,4.36446 -2.23067,5.84723 -7.3968,5.84723 -2.37774,0 -4.11514,0.29888 -4.51115,0.77604 -1.10697,1.33382 -2.09958,8.54499 -1.42166,10.32807 0.88215,2.32022 4.20361,4.46665 6.91185,4.46665 2.60185,0 4.38805,-1.39967 6.94156,-5.43945 1.92894,-3.05166 4.31358,-4.62594 7.00714,-4.62594 2.57767,0 4.09481,0.88682 5.21152,3.0463 1.34377,2.59857 1.13722,5.46102 -0.65333,9.05419 -4.2656,8.55996 -16.02509,13.64515 -24.95625,10.79192 z"
     id="path639" />
  <path
     style="opacity:0.68;fill:#000000;stroke-width:0.611708"
     d="m 398.7804,149.30425 c -6.75044,-2.93905 -24.00143,-34.67675 -28.73326,-52.862352 -7.76585,-29.845989 2.63567,-55.391404 25.59703,-62.864589 6.3843,-2.077885 15.77039,-2.346562 21.54102,-0.616613 9.68512,2.903462 18.69935,9.648559 24.46833,18.308979 l 3.05855,4.591497 6.42294,0.352308 c 11.86954,0.651063 15.66989,1.372807 21.03792,3.995427 8.59799,4.200665 14.99998,10.52491 19.20761,18.974388 l 2.26821,4.55486 v 11.655416 11.655409 l -2.20497,4.58782 c -7.08122,14.73365 -23.12761,26.44118 -44.47807,32.45146 -16.35466,4.60392 -42.97307,7.48533 -48.18531,5.21599 z m 27.27456,-14.73144 c 26.51784,-3.94764 45.42808,-14.10432 52.35074,-28.11757 2.33491,-4.72645 2.3968,-5.02006 2.38313,-11.304989 -0.0172,-7.894705 -1.06072,-10.595437 -6.1596,-15.941085 -6.91007,-7.244479 -12.58224,-9.530544 -22.20172,-8.947994 -3.23418,0.19586 -7.59879,0.534572 -9.69914,0.752694 -5.09884,0.529516 -6.07708,-0.194901 -9.7394,-7.212309 -3.92282,-7.51655 -9.91083,-13.750376 -15.19208,-15.815724 -3.10234,-1.213241 -4.80605,-1.440025 -11.01075,-1.46566 -6.48742,-0.0268 -7.6768,0.1353 -10.23428,1.394852 -10.82968,5.333607 -17.0156,19.29819 -15.19207,34.295787 1.61232,13.260519 7.60261,29.066248 16.81941,44.379068 6.17639,10.26145 5.3737,9.73241 14.11232,9.30126 4.03727,-0.19919 10.23082,-0.79244 13.76344,-1.31833 z"
     id="path641" />
  <path
     style="opacity:0.68;fill:#000000;stroke-width:0.611708"
     d="m 380.1639,300.4234 c -2.8251,-1.09011 -8.551,-4.62588 -8.551,-5.28029 0,-0.28215 -3.78494,-0.60263 -8.41099,-0.71217 l -8.41099,-0.19916 -3.79745,-2.60509 c -2.0886,-1.43279 -4.59505,-3.77258 -5.56988,-5.19952 -4.36861,-6.39468 -4.81056,-15.46874 -0.91038,-18.6916 2.81849,-2.32901 4.31056,-2.69133 6.60314,-1.60343 3.23315,1.53423 4.09595,2.91525 4.54762,7.27911 0.50052,4.83579 2.05772,7.27706 4.81747,7.55252 2.63221,0.26273 4.01115,-0.6294 6.79269,-4.39463 2.90647,-3.93434 5.19986,-5.08106 8.18895,-4.09457 3.48843,1.15129 4.7115,2.99333 5.23393,7.88275 0.5693,5.32805 1.70251,6.83981 5.12705,6.83981 2.51016,0 2.37237,0.10475 7.95341,-6.04651 1.96583,-2.16669 2.63285,-2.51741 4.78779,-2.51741 1.9517,0 2.89801,0.39426 4.29183,1.78807 2.41127,2.41128 2.38724,5.38141 -0.0836,10.32591 -1.96527,3.93285 -4.48146,6.32798 -9.13912,8.69941 -3.38183,1.72185 -10.24912,2.21982 -13.47051,0.9768 z"
     id="path643" />
  <path
     style="opacity:0.68;fill:#000000;stroke-width:0.611708"
     d="m 320.95722,255.37261 c -1.11368,-0.67899 -2.42912,-2.20205 -2.92322,-3.38458 -0.81173,-1.94275 -0.78261,-2.63451 0.30203,-7.17419 2.21274,-9.26131 3.68767,-11.38589 8.26227,-11.90151 2.45204,-0.27638 2.94928,-0.1088 4.61264,1.55456 1.61725,1.61725 1.86433,2.30174 1.86433,5.16476 0,6.21516 -3.01817,13.78056 -6.29469,15.77835 -2.46742,1.50447 -3.30322,1.4991 -5.82336,-0.0374 z"
     id="path645" />
  <path
     style="opacity:0.68;fill:#000000;stroke-width:0.611708"
     d="m 427.40412,282.88606 c -0.77193,-0.30981 -1.83463,-1.59508 -2.36155,-2.85616 -0.87231,-2.08775 -0.86909,-2.74551 0.036,-7.35193 2.04673,-10.41684 5.91001,-14.30473 11.39547,-11.46809 2.63654,1.36341 3.85628,4.11779 3.34945,7.56364 -0.74539,5.06776 -3.44104,12.27402 -5.07093,13.5561 -1.62007,1.27434 -4.9343,1.5253 -7.34843,0.55644 z"
     id="path647" />
  <path
     style="opacity:0.68;fill:#000000;stroke-width:0.611708"
     d="m 247.01221,198.45113 c -3.649,-2.33735 -3.88278,-7.20043 -0.77971,-16.21966 2.77205,-8.05711 7.23204,-10.13013 12.06141,-5.6062 1.79212,1.67878 1.83853,5.8557 0.13344,12.00872 -2.81532,10.15944 -6.25824,13.12038 -11.41514,9.81714 z"
     id="path649" />
  <path
     style="opacity:0.68;fill:#000000;stroke-width:0.611708"
     d="m 128.76464,167.74352 c -2.2653,-1.13189 -3.72319,-4.45772 -3.26695,-7.45274 0.94077,-6.17588 3.29965,-12.87007 5.12751,-14.55123 2.46506,-2.26723 5.8673,-2.30671 8.49155,-0.0986 1.72781,1.45386 1.88206,1.89352 1.88206,5.36474 0,4.01855 -1.86483,11.75811 -3.5001,14.5264 -1.67932,2.84285 -5.52276,3.81598 -8.73407,2.21138 z"
     id="path651" />
</svg>
