<svg width="512" height="512" xmlns="http://www.w3.org/2000/svg"><path style="fill:#cfcfcf" d="M38.476 364.5c0-42.9.123-60.304.274-38.676.15 21.629.15 56.729 0 78-.151 21.272-.274 3.576-.274-39.324zm68.337 64.817c.721-.289 1.584-.253 1.916.079.332.332-.258.568-1.312.525-1.165-.048-1.402-.285-.605-.604zm-.347-64.817c0-29.7.128-41.706.283-26.68.156 15.027.156 39.327 0 54-.156 14.674-.283 2.38-.283-27.32zm180.803 23.807c.973-.254 2.323-.237 3 .037.677.274-.119.481-1.769.461-1.65-.02-2.204-.244-1.231-.498zm23.926-22.807c.02-1.65.244-2.204.498-1.231.254.973.237 2.323-.037 3-.274.677-.481-.119-.461-1.769zm10.884-2.083c.048-1.165.285-1.402.604-.604.289.721.253 1.584-.079 1.916-.332.332-.568-.258-.525-1.312zm-10.155-22.167-2.424-2.75 2.75 2.424c2.57 2.266 3.209 3.076 2.424 3.076-.179 0-1.416-1.238-2.75-2.75zm161.271-11.75c.02-1.65.244-2.204.498-1.231.254.973.237 2.323-.037 3-.274.677-.481-.119-.461-1.769zm-11.116-.083c.048-1.165.285-1.402.604-.604.289.721.253 1.584-.079 1.916-.332.332-.568-.258-.525-1.312zM98.405 288.75 96.5 286.5l2.25 1.905c2.114 1.79 2.705 2.595 1.905 2.595-.19 0-1.202-1.012-2.25-2.25zm-45.1-6.497c5.942-.177 15.392-.176 21 .001 5.607.178.745.323-10.805.322-11.55 0-16.138-.146-10.196-.323zM335 253.623c0-.208.787-.996 1.75-1.75 1.586-1.244 1.621-1.21.378.377-1.307 1.666-2.128 2.195-2.128 1.372zm-10-6c0-.208.787-.996 1.75-1.75 1.586-1.244 1.621-1.21.378.377-1.307 1.666-2.128 2.195-2.128 1.372zM196 236.5c-4.097-4.125-7.225-7.5-6.95-7.5.275 0 3.853 3.375 7.95 7.5 4.097 4.125 7.225 7.5 6.95 7.5-.275 0-3.853-3.375-7.95-7.5zm14.946-1.25-3.446-3.75 3.75 3.446c3.49 3.208 4.21 4.054 3.446 4.054-.167 0-1.854-1.688-3.75-3.75zM347.5 226c2.148-2.2 4.13-4 4.406-4 .275 0-1.258 1.8-3.406 4s-4.13 4-4.406 4c-.275 0 1.258-1.8 3.406-4zm-25.5-.378c0-.207.787-.995 1.75-1.75 1.586-1.243 1.621-1.208.378.378-1.307 1.666-2.128 2.195-2.128 1.372zm-127.076-6.372-2.424-2.75 2.75 2.424c2.57 2.266 3.209 3.076 2.424 3.076-.179 0-1.416-1.238-2.75-2.75zM367 221.622c0-.207.787-.995 1.75-1.75 1.586-1.243 1.621-1.208.378.378-1.307 1.666-2.128 2.195-2.128 1.372zM221.158 212c0-1.375.227-1.938.504-1.25.278.688.278 1.813 0 2.5-.277.688-.504.125-.504-1.25zm87.247-25.25-1.905-2.25 2.25 1.905c1.238 1.048 2.25 2.06 2.25 2.25 0 .8-.805.21-2.595-1.905zm-92.655-10.412c.688-.278 1.813-.278 2.5 0 .688.277.125.504-1.25.504s-1.938-.227-1.25-.504zM260.5 156c.995-1.1 2.035-2 2.31-2 .275 0-.315.9-1.31 2-.995 1.1-2.035 2-2.31 2-.275 0 .315-.9 1.31-2zm28.372.25c-1.243-1.586-1.208-1.621.378-.378.963.755 1.75 1.543 1.75 1.75 0 .823-.821.294-2.128-1.372zM189.158 149c0-1.375.227-1.938.504-1.25.278.688.278 1.813 0 2.5-.277.688-.504.125-.504-1.25zm99.714-14.75c-1.243-1.586-1.208-1.621.378-.378.963.755 1.75 1.543 1.75 1.75 0 .823-.821.294-2.128-1.372zM227 92.622c0-.207.787-.995 1.75-1.75 1.586-1.243 1.621-1.208.378.378-1.307 1.666-2.128 2.195-2.128 1.372zm-70-23.935c0-.172 1.462-1.635 3.25-3.25l3.25-2.937-2.937 3.25c-2.738 3.03-3.563 3.71-3.563 2.937zm102.405-2.937L257.5 63.5l2.25 1.905c2.114 1.79 2.705 2.595 1.905 2.595-.19 0-1.202-1.012-2.25-2.25z"/><path style="fill:#b0b0b0" d="M240.813 477.317c.721-.289 1.584-.253 1.916.079.332.332-.258.568-1.312.525-1.165-.048-1.402-.285-.604-.604zM98 440.622c0-.207.787-.995 1.75-1.75 1.586-1.243 1.621-1.208.378.378-1.307 1.666-2.128 2.195-2.128 1.372zm189.813-41.305c.721-.289 1.584-.253 1.916.079.332.332-.258.568-1.312.525-1.165-.048-1.402-.285-.604-.604zM464 349.622c0-.207.787-.995 1.75-1.75 1.586-1.243 1.621-1.208.378.378-1.307 1.666-2.128 2.195-2.128 1.372zM338.5 235c.995-1.1 2.035-2 2.31-2 .275 0-.315.9-1.31 2-.995 1.1-2.035 2-2.31 2-.275 0 .315-.9 1.31-2zm-101.688-6.683c.722-.289 1.585-.253 1.917.079.332.332-.258.568-1.312.525-1.165-.048-1.402-.285-.604-.604zm75 0c.722-.289 1.585-.253 1.917.079.332.332-.258.568-1.312.525-1.165-.048-1.402-.285-.604-.604zm-40-5c.722-.289 1.585-.253 1.917.079.332.332-.258.568-1.312.525-1.165-.048-1.402-.285-.604-.604zm5 0c.722-.289 1.585-.253 1.917.079.332.332-.258.568-1.312.525-1.165-.048-1.402-.285-.604-.604zM352 221.622c0-.207.787-.995 1.75-1.75 1.586-1.243 1.621-1.208.378.378-1.307 1.666-2.128 2.195-2.128 1.372zM228 198.5c1.292-1.375 2.574-2.5 2.849-2.5.275 0-.557 1.125-1.849 2.5-1.292 1.375-2.574 2.5-2.849 2.5-.275 0 .557-1.125 1.849-2.5zm92.872-.25c-1.243-1.586-1.208-1.621.378-.378.963.755 1.75 1.543 1.75 1.75 0 .823-.821.294-2.128-1.372zm11.94-21.933c.722-.289 1.585-.253 1.917.079.332.332-.258.568-1.312.525-1.165-.048-1.402-.285-.604-.604zM265.159 120c0-1.375.227-1.938.504-1.25.278.688.278 1.813 0 2.5-.277.688-.504.125-.504-1.25zm-42-14c0-1.375.227-1.938.504-1.25.278.688.278 1.813 0 2.5-.277.688-.504.125-.504-1.25zm173.766-47.75L394.5 55.5l2.75 2.424c1.512 1.334 2.75 2.571 2.75 2.75 0 .785-.81.146-3.076-2.424zM205.813 34.317c.721-.289 1.584-.253 1.916.079.332.332-.258.568-1.312.525-1.165-.048-1.402-.285-.604-.604zm5.937.02c.688-.277 1.813-.277 2.5 0 .688.278.125.505-1.25.505s-1.938-.227-1.25-.504zm124.063-.02c.721-.289 1.584-.253 1.916.079.332.332-.258.568-1.312.525-1.165-.048-1.402-.285-.604-.604zm5.937.02c.688-.277 1.813-.277 2.5 0 .688.278.125.505-1.25.505s-1.938-.227-1.25-.504z"/><path style="fill:#909090" d="M53.75 446.254c5.638-.178 14.863-.178 20.5 0 5.638.178 1.025.324-10.25.324s-15.887-.146-10.25-.324zm96.063-145.937c.721-.289 1.584-.253 1.916.079.332.332-.258.568-1.312.525-1.165-.048-1.402-.285-.604-.604zM339 249.622c0-.207.787-.995 1.75-1.75 1.586-1.243 1.621-1.208.378.378-1.307 1.666-2.128 2.195-2.128 1.372zm-121.128-7.372c-1.243-1.586-1.208-1.621.378-.378.963.755 1.75 1.543 1.75 1.75 0 .823-.821.294-2.128-1.372zM334 239.622c0-.207.787-.995 1.75-1.75 1.586-1.243 1.621-1.208.378.378-1.307 1.666-2.128 2.195-2.128 1.372zm-35.188-101.305c.722-.289 1.585-.253 1.917.079.332.332-.258.568-1.312.525-1.165-.048-1.402-.285-.604-.604zM421.286 116.5c.008-2.75.202-3.756.432-2.236.23 1.52.223 3.77-.014 5-.237 1.23-.425-.014-.418-2.764zM266.437 57.75 263.5 54.5l3.25 2.937c1.788 1.615 3.25 3.078 3.25 3.25 0 .773-.825.092-3.563-2.937zm-57.625-23.433c.722-.289 1.585-.253 1.917.079.332.332-.258.568-1.312.525-1.165-.048-1.402-.285-.604-.604zm130 0c.722-.289 1.585-.253 1.917.079.332.332-.258.568-1.312.525-1.165-.048-1.402-.285-.604-.604z"/><path style="fill:#6f6f6f" d="M116.195 300.254c5.882-.176 15.782-.177 22 0 6.218.175 1.405.32-10.695.32-12.1.001-17.187-.143-11.305-.32zM221.872 144.25c-1.243-1.586-1.208-1.621.378-.378.963.755 1.75 1.543 1.75 1.75 0 .823-.821.294-2.128-1.372zM284.158 120c0-1.375.227-1.938.504-1.25.278.688.278 1.813 0 2.5-.277.688-.504.125-.504-1.25zM152 58.5c1.292-1.375 2.574-2.5 2.849-2.5.275 0-.557 1.125-1.849 2.5-1.292 1.375-2.574 2.5-2.849 2.5-.275 0 .557-1.125 1.849-2.5z"/><path style="fill:#4f4f4f" d="M345.5 243c.995-1.1 2.035-2 2.31-2 .275 0-.315.9-1.31 2-.995 1.1-2.035 2-2.31 2-.275 0 .315-.9 1.31-2zm12.5-12.378c0-.207.787-.995 1.75-1.75 1.586-1.243 1.621-1.208.378.378-1.307 1.666-2.128 2.195-2.128 1.372zm-173.128-6.372c-1.243-1.586-1.208-1.621.378-.378.963.755 1.75 1.543 1.75 1.75 0 .823-.821.294-2.128-1.372zm45.207-61.833c.048-1.165.285-1.402.604-.604.289.721.253 1.584-.079 1.916-.332.332-.568-.258-.525-1.312zm44.734-11.1c.721-.289 1.584-.253 1.916.079.332.332-.258.568-1.312.525-1.165-.048-1.402-.285-.604-.604zM326 145.622c0-.207.787-.995 1.75-1.75 1.586-1.243 1.621-1.208.378.378-1.307 1.666-2.128 2.195-2.128 1.372zM128.252 116.5c.011-2.2.216-2.982.455-1.738.24 1.244.23 3.044-.02 4s-.446-.062-.435-2.262zm10 0c.011-2.2.216-2.982.455-1.738.24 1.244.23 3.044-.02 4s-.446-.062-.435-2.262zm99.498-29.162c.688-.278 1.813-.278 2.5 0 .688.277.125.504-1.25.504s-1.938-.227-1.25-.504zm72 0c.688-.278 1.813-.278 2.5 0 .688.277.125.504-1.25.504s-1.938-.227-1.25-.504z"/><path style="fill:#2f2f2f" d="M116.304 310.253c5.943-.177 15.393-.176 21 .001 5.608.178.746.323-10.804.322-11.55 0-16.138-.146-10.196-.323zm100.568-55.003c-1.243-1.586-1.208-1.621.378-.378.963.755 1.75 1.543 1.75 1.75 0 .823-.821.294-2.128-1.372zM318 254.622c0-.207.787-.995 1.75-1.75 1.586-1.243 1.621-1.208.378.378-1.307 1.666-2.128 2.195-2.128 1.372zm15 0c0-.207.787-.995 1.75-1.75 1.586-1.243 1.621-1.208.378.378-1.307 1.666-2.128 2.195-2.128 1.372zm-109.128-6.372c-1.243-1.586-1.208-1.621.378-.378.963.755 1.75 1.543 1.75 1.75 0 .823-.821.294-2.128-1.372zM203 242.5c-2.429-2.475-4.191-4.5-3.916-4.5.275 0 2.487 2.025 4.916 4.5 2.429 2.475 4.191 4.5 3.916 4.5-.275 0-2.487-2.025-4.916-4.5zm125.5 2.5c.995-1.1 2.035-2 2.31-2 .275 0-.315.9-1.31 2-.995 1.1-2.035 2-2.31 2-.275 0 .315-.9 1.31-2zm24-9c2.709-2.75 5.15-5 5.425-5 .275 0-1.716 2.25-4.425 5-2.709 2.75-5.15 5-5.425 5-.275 0 1.716-2.25 4.425-5zm-149.02-7.25-8.98-9.25 9.25 8.98c5.088 4.938 9.25 9.1 9.25 9.25 0 .725-1.181-.389-9.52-8.98zM191 230.5c-2.429-2.475-4.191-4.5-3.916-4.5.275 0 2.487 2.025 4.916 4.5 2.429 2.475 4.191 4.5 3.916 4.5-.275 0-2.487-2.025-4.916-4.5zm177-10.878c0-.207.787-.995 1.75-1.75 1.586-1.243 1.621-1.208.378.378-1.307 1.666-2.128 2.195-2.128 1.372zm-8-6c0-.207.787-.995 1.75-1.75 1.586-1.243 1.621-1.208.378.378-1.307 1.666-2.128 2.195-2.128 1.372zM319.195 162.5c.02-1.65.244-2.204.498-1.231.254.973.237 2.323-.037 3-.274.677-.481-.119-.461-1.769zm-29.79-28.75-1.905-2.25 2.25 1.905c1.238 1.048 2.25 2.06 2.25 2.25 0 .8-.805.21-2.595-1.905zm-55.48-3.5-2.425-2.75 2.75 2.424c2.57 2.266 3.209 3.076 2.424 3.076-.179 0-1.416-1.238-2.75-2.75zm85.947-39c-1.243-1.586-1.208-1.621.378-.378 1.666 1.307 2.195 2.128 1.372 2.128-.207 0-.995-.787-1.75-1.75zM287.5 67c.995-1.1 2.035-2 2.31-2 .275 0-.315.9-1.31 2-.995 1.1-2.035 2-2.31 2-.275 0 .315-.9 1.31-2zm3.5-3.378c0-.207.787-.995 1.75-1.75 1.586-1.243 1.621-1.208.378.378-1.307 1.666-2.128 2.195-2.128 1.372zM282.5 58c.995-1.1 2.035-2 2.31-2 .275 0-.315.9-1.31 2-.995 1.1-2.035 2-2.31 2-.275 0 .315-.9 1.31-2z"/><path style="fill:#000" d="M230.5 475.118c-14.797-4.032-34.144-12.725-58.514-26.292-6.318-3.517-14.8-7.863-18.849-9.657-9.954-4.41-28.533-9.077-39.132-9.83l-8.692-.616-2.259 4.666c-1.242 2.566-3.7 5.764-5.46 7.107-6.74 5.141-8.91 5.504-32.907 5.504-20.409 0-22.523-.16-24.032-1.829-1.51-1.669-1.655-8.66-1.655-79.943v-78.115l2.223-1.556c3.177-2.226 41.028-2.266 48.483-.052 5.94 1.764 12.589 7.828 14.314 13.055l1.135 3.44 25.673.018c16.743.012 29.15.513 35.672 1.44 16.024 2.28 133.217 31.226 138.233 34.144 9.656 5.617 15.74 15.057 16.908 26.234.354 3.39.745 6.164.868 6.164s25.372-14.225 56.108-31.612c30.735-17.387 57.627-32.237 59.759-33 4.983-1.785 10.019-1.759 16.193.083 6.441 1.922 11.307 6.053 14.927 12.673 2.448 4.479 2.928 6.502 2.928 12.356 0 10.4-2.989 15.21-16.33 26.282-44.557 36.978-101.99 75.843-144.594 97.845-37.928 19.586-63.292 26.316-81 21.49zm37-12.876c20.682-6.893 42.011-17.367 72.5-35.602 45.187-27.025 117.668-80.815 121.61-90.25 4.701-11.25-2.984-23.39-14.808-23.39-2.696 0-6.341.732-8.102 1.627-1.76.895-29.525 16.482-61.7 34.637-50.306 28.385-59.232 33.766-63.728 38.418-3.08 3.186-7.6 6.518-11 8.107-9.978 4.664-14.49 4.109-62.272-7.661-22.825-5.623-43.208-10.674-45.294-11.226-5.197-1.374-6.971-5.081-3.901-8.151l2.165-2.165 46.196 11.314c52.132 12.768 54.218 13.02 62.061 7.508 6.65-4.674 10.065-10.302 10.582-17.437.728-10.068-3.853-18.912-11.93-23.033-4.245-2.165-116.909-30.043-131.379-32.508-5.621-.958-19.042-1.758-35.75-2.132L106 309.7v109.042l7.25.688c22.408 2.127 39.63 7.971 66.08 22.423 19.867 10.856 34.917 17.92 46.007 21.592 10.57 3.5 10.388 3.473 20.663 3.121 7.87-.269 11.56-1.011 21.5-4.324zM260 290.436c-74.608-56.673-122.316-115.388-130.107-160.127-1.443-8.288-.623-26.908 1.533-34.809 6.332-23.202 22.976-42.897 44.734-52.932 10.288-4.745 17.703-6.535 29.84-7.201 24.037-1.32 48.09 8.571 63.854 26.259l4.881 5.476 6.383-6.648c7.785-8.11 13.205-12.166 22.469-16.815 12.038-6.042 20.99-8.058 35.913-8.088 18.024-.036 30.026 3.39 44.13 12.597 28.048 18.31 42.033 51.05 35.813 83.841-4.171 21.987-17.82 47.45-40.164 74.929-11.66 14.339-44.543 46.927-62.279 61.72-21.274 17.745-39.648 31.368-42.256 31.328-1.253-.02-7.764-4.227-14.744-9.53zm25.152-8.622c38.491-29.59 74.46-64.412 95.294-92.255 26.357-35.225 35.483-64.19 28.622-90.846-6.429-24.97-26.82-45.384-51.691-51.745-9.388-2.4-25.05-2.605-34.209-.446-14.275 3.365-29.453 12.803-37.846 23.532-8.987 11.487-8.784 11.298-11.41 10.639-1.338-.336-3.298-2.092-4.357-3.902-3.3-5.642-13.74-15.879-21.2-20.786-4.143-2.726-10.866-5.92-16-7.603C224.29 45.76 222.25 45.5 209.5 45.5c-12.077 0-14.961.325-21 2.364-11.976 4.044-19.284 8.708-29.037 18.533-7.293 7.345-9.84 10.744-13.192 17.603-6.006 12.287-7.623 19.343-7.565 33 .04 9.407.531 13.138 2.697 20.5 8.824 29.998 34.877 66.208 73.597 102.293 20.466 19.073 56.731 48.942 59.652 49.132.633.041 5.358-3.159 10.5-7.111zm-54.853-55.438c-3.762-1.855-5.646-4.464-7.364-10.198-2.24-7.48-.44-10.777 13.412-24.553 9.872-9.818 12.837-13.457 15.584-19.125 8.193-16.9 12.155-20.5 22.561-20.5 6.377 0 11.25 1.736 14.428 5.14 1.212 1.298 4.52 6.86 7.351 12.36 4.553 8.844 6.522 11.373 17.044 21.88 15.427 15.406 16.796 18.544 12.302 28.196-4.058 8.715-9.107 9.913-26.832 6.366-17.313-3.465-28.054-3.601-44.19-.562-16.032 3.02-19.871 3.178-24.296.996zm-20.705-52.021c-7.075-2.172-15.856-11.13-18.005-18.368-1.955-6.581-1.973-8.132-.15-12.497 3.127-7.482 12.862-9.636 22.3-4.933 16.855 8.4 22.123 30.425 8.625 36.064-4.083 1.706-6.51 1.655-12.77-.266zm116.773-.273c-4.786-2.918-6.367-5.858-6.367-11.838 0-19.694 27.994-35.01 37.554-20.545 1.214 1.836 1.83 4.525 1.79 7.804-.197 16.19-21.138 31.798-32.977 24.579zM242.5 136.095c-5.575-2.594-11.892-9.5-15.177-16.595-5.25-11.335-3.346-24.85 4.151-29.484 12.936-7.995 31.621 7.672 33.167 27.808.435 5.662.16 7.358-1.814 11.168-4.34 8.378-11.905 11.021-20.327 7.103zm51.945.946c-3.329-1.348-8.294-7.717-9.016-11.566-2.456-13.091 5.599-29.922 16.95-35.417 2.483-1.201 6.25-2.058 9.054-2.058 4.224 0 5.258.456 8.589 3.786 5.139 5.14 6.59 10.637 5.044 19.103-1.43 7.825-3.968 12.964-9.219 18.66-6.516 7.07-15.06 10.06-21.402 7.492z"/></svg>