<?xml version="1.0" encoding="UTF-8" standalone="no"?>
<!-- Created with Inkscape (http://www.inkscape.org/) -->

<svg
   version="1.1"
   id="svg315"
   width="546.1333"
   height="546.1333"
   viewBox="0 0 546.1333 546.1333"
   xmlns="http://www.w3.org/2000/svg"
   xmlns:svg="http://www.w3.org/2000/svg">
  <defs
     id="defs319" />
  <g
     id="g321">
    <g
       id="g442">
      <path
         style="fill:#d4d4d4;stroke-width:1.06667"
         d="m 333.23197,364.53331 -2.03199,-2.4 2.4,2.03199 c 1.32,1.11759 2.4,2.19759 2.4,2.4 0,0.8536 -0.85844,0.22341 -2.76801,-2.03199 z m 159.65221,-13.15555 c 0.0512,-1.24261 0.30394,-1.49536 0.64444,-0.64445 0.30813,0.77 0.27024,1.69001 -0.0842,2.04445 -0.35444,0.35444 -0.60655,-0.27556 -0.56023,-1.4 z M 105.46393,308.53331 c -1.32679,-1.69179 -1.28906,-1.72952 0.40273,-0.40273 1.02667,0.80518 1.86667,1.64518 1.86667,1.86667 0,0.87791 -0.87594,0.31286 -2.2694,-1.46394 z m -44.376966,-7.40585 c 1.037831,-0.27044 2.477831,-0.25266 3.2,0.0396 0.722167,0.29219 -0.126968,0.51346 -1.886968,0.49172 -1.76,-0.0218 -2.350865,-0.2608 -1.313032,-0.53124 z m 11.733332,0 c 1.037832,-0.27044 2.477832,-0.25266 3.2,0.0396 0.722168,0.29219 -0.126967,0.51346 -1.886967,0.49172 -1.76,-0.0218 -2.350865,-0.2608 -1.313033,-0.53124 z M 346.66665,264.13059 c 0,-0.2215 0.84,-1.0615 1.86666,-1.86667 1.6918,-1.32679 1.72953,-1.28907 0.40273,0.40273 -1.39346,1.7768 -2.26939,2.34185 -2.26939,1.46394 z m -138.16194,-12.66394 -7.43806,-7.73333 7.73334,7.43806 c 7.18272,6.90847 8.22047,8.0286 7.43806,8.0286 -0.1624,0 -3.6424,-3.48 -7.73334,-7.73333 z m 16.50452,-0.53333 -3.67591,-4 4,3.67591 c 3.72311,3.42145 4.49044,4.32409 3.67591,4.32409 -0.17825,0 -1.97825,-1.8 -4,-4 z m -16.57725,-16.53333 -2.03199,-2.4 2.4,2.03199 c 2.2554,1.90956 2.88559,2.76801 2.03199,2.76801 -0.20241,0 -1.28241,-1.08 -2.4,-2.4 z m 183.03466,1.99726 c 0,-0.22149 0.84,-1.06149 1.86667,-1.86666 1.6918,-1.3268 1.72952,-1.28907 0.40273,0.40273 -1.39346,1.7768 -2.2694,2.34184 -2.2694,1.46393 z M 276.26665,168.13059 c 0,-0.22149 0.84,-1.06149 1.86667,-1.86666 1.69179,-1.3268 1.72952,-1.28907 0.40273,0.40273 -1.39346,1.7768 -2.2694,2.34184 -2.2694,1.46393 z m 31.86393,-24.9306 c -1.32679,-1.6918 -1.28906,-1.72952 0.40273,-0.40273 1.02667,0.80517 1.86667,1.64517 1.86667,1.86667 0,0.87791 -0.87593,0.31286 -2.2694,-1.46394 z m 115.76805,-80.533327 -2.03199,-2.4 2.4,2.031987 c 1.32,1.117593 2.4,2.197592 2.4,2.4 0,0.853603 -0.85844,0.223421 -2.76801,-2.031987 z"
         id="path456" />
      <path
         style="fill:#c0bdba;stroke-width:1.06667"
         d="m 66.399996,301.13136 c 1.026667,-0.26829 2.706666,-0.26829 3.733333,0 1.026667,0.2683 0.186667,0.48782 -1.866667,0.48782 -2.053333,0 -2.893333,-0.21952 -1.866666,-0.48782 z M 367.99998,243.93288 c 0,-0.18357 1.56,-1.74357 3.46666,-3.46667 l 3.46667,-3.13289 -3.1329,3.46667 c -2.92029,3.23142 -3.80043,3.95696 -3.80043,3.13289 z M 284.66392,61.066663 c -1.3268,-1.691793 -1.28907,-1.729521 0.40273,-0.402725 1.7768,1.39346 2.34184,2.269391 1.46394,2.269391 -0.2215,0 -1.0615,-0.839999 -1.86667,-1.866666 z"
         id="path454" />
      <path
         style="fill:#b5b3b1;stroke-width:1.06667"
         d="m 62.666663,476.01358 c 3.08,-0.21547 8.119999,-0.21547 11.199999,0 3.08,0.21547 0.56,0.39177 -5.6,0.39177 -6.159999,0 -8.679999,-0.1763 -5.599999,-0.39177 z M 331.81753,389.77776 c 0.0512,-1.24262 0.30393,-1.49536 0.64443,-0.64445 0.30813,0.76999 0.27024,1.69 -0.0842,2.04445 -0.35444,0.35444 -0.60655,-0.27557 -0.56023,-1.4 z m 29.78245,-123.51384 c 0,-0.22149 0.84,-1.06149 1.86666,-1.86667 1.6918,-1.32679 1.72953,-1.28906 0.40274,0.40273 -1.39347,1.7768 -2.2694,2.34185 -2.2694,1.46394 z m 87.63508,-141.46393 c 0,-1.46666 0.24211,-2.06666 0.53801,-1.33333 0.29591,0.73333 0.29591,1.93333 0,2.66667 -0.2959,0.73333 -0.53801,0.13333 -0.53801,-1.33334 z M 277.19725,70.666662 c -1.32679,-1.691793 -1.28906,-1.729521 0.40273,-0.402725 1.7768,1.39346 2.34185,2.269392 1.46394,2.269392 -0.22149,0 -1.06149,-0.84 -1.86667,-1.866667 z"
         id="path452" />
      <path
         style="fill:#958f8b;stroke-width:1.06667"
         d="m 374.39998,237.46392 c 0,-0.22149 0.84,-1.06149 1.86666,-1.86667 1.6918,-1.32679 1.72953,-1.28906 0.40273,0.40274 -1.39346,1.7768 -2.26939,2.34184 -2.26939,1.46393 z M 283.73332,61.33333 c -1.37787,-1.466667 -2.06154,-2.651583 -1.51927,-2.633147 0.91206,0.03101 5.30785,5.299813 4.42167,5.299813 -0.21847,0 -1.52454,-1.2 -2.9024,-2.666666 z"
         id="path450" />
      <path
         style="fill:#89817c;stroke-width:1.06667"
         d="m 135.26666,320.338 c 0.76999,-0.30813 1.68999,-0.27024 2.04445,0.0842 0.35444,0.35444 -0.27557,0.60655 -1.4,0.56023 -1.24262,-0.0512 -1.49536,-0.30393 -0.64445,-0.64444 z M 168.53332,72.130604 c 0,-0.2215 0.84,-1.0615 1.86667,-1.866667 1.6918,-1.326796 1.72952,-1.289068 0.40273,0.402725 -1.39346,1.776798 -2.2694,2.341844 -2.2694,1.463942 z"
         id="path448" />
      <path
         style="fill:#837a75;stroke-width:1.06667"
         d="m 124.53333,320.31387 c 1.32,-0.25425 3.48,-0.25425 4.8,0 1.32,0.25424 0.24,0.46226 -2.4,0.46226 -2.64,0 -3.72,-0.20802 -2.4,-0.46226 z m 17.59999,-0.0112 c 1.61334,-0.24441 4.25334,-0.24441 5.86667,0 1.61333,0.24439 0.29333,0.44436 -2.93333,0.44436 -3.22667,0 -4.54667,-0.19997 -2.93334,-0.44436 z m 226.39999,-61.10269 c 1.06186,-1.17333 2.17065,-2.13333 2.46398,-2.13333 0.29333,0 -0.33546,0.96 -1.39731,2.13333 -1.06186,1.17334 -2.17065,2.13334 -2.46398,2.13334 -0.29333,0 0.33545,-0.96 1.39731,-2.13334 z m -39.06939,-59.46666 c -1.3268,-1.6918 -1.28907,-1.72952 0.40273,-0.40273 1.7768,1.39346 2.34184,2.2694 1.46393,2.2694 -0.22149,0 -1.06149,-0.84 -1.86666,-1.86667 z M 136.70174,124.79999 c 0,-1.46666 0.24211,-2.06666 0.53802,-1.33333 0.2959,0.73333 0.2959,1.93333 0,2.66667 -0.29591,0.73333 -0.53802,0.13333 -0.53802,-1.33334 z"
         id="path446" />
      <path
         style="fill:#746a64;stroke-width:1.06667"
         d="m 245.26088,507.17994 c -12.91673,-3.13679 -28.71435,-10.32468 -70.32756,-31.99896 -18.69753,-9.73861 -35.61095,-14.82254 -56.27039,-16.91406 -5.58575,-0.5655 -5.61028,-0.55464 -7.63986,3.38287 -1.11988,2.1726 -3.6382,5.48585 -5.59627,7.36279 -6.57365,6.30124 -8.855311,6.72072 -36.555015,6.72072 -23.687759,0 -25.124001,-0.11323 -26.167591,-2.06321 -0.734282,-1.37202 -1.104197,-30.14685 -1.104197,-85.89306 v -83.82985 l 2.736107,-1.04027 c 3.802807,-1.44582 45.327804,-1.32347 51.1827,0.15081 5.965326,1.50208 13.553896,8.07019 15.794836,13.67086 l 1.69256,4.23014 28.39505,0.0718 c 15.61728,0.0395 31.71476,0.54256 35.7722,1.118 22.74471,3.22578 142.96702,33.27162 149.92345,37.46872 8.13374,4.90741 14.7069,15.22121 15.98784,25.08614 0.36874,2.83983 0.96552,5.70034 1.32617,6.35669 0.41089,0.74778 20.37049,-9.91006 53.45573,-28.54378 70.30805,-39.5978 69.7526,-39.3163 77.57942,-39.3163 12.67344,0 21.55443,5.60457 26.70368,16.85202 2.23252,4.87646 2.57215,6.91482 2.14458,12.87102 -0.87304,12.16158 -4.51353,16.87648 -26.96102,34.91796 -49.57138,39.8415 -107.69371,78.06178 -151.46665,99.60197 -38.56694,18.97836 -61.05517,24.48479 -80.60577,19.73699 z m 31.16013,-12.14971 c 27.07592,-6.92485 69.18814,-28.71563 116.64563,-60.35774 39.78427,-26.52603 79.56165,-56.43185 93.06937,-69.97234 6.43564,-6.45124 8.23742,-11.12344 6.61427,-17.15137 -2.3499,-8.72688 -9.03412,-13.22655 -18.3557,-12.35665 -4.91091,0.45828 -11.6394,3.93315 -55.05782,28.43415 -61.35084,34.62027 -72.52107,41.20158 -81.00522,47.72691 -19.89078,15.29843 -22.77662,16.16385 -41.94706,12.5793 -17.56034,-3.28349 -91.65462,-22.02169 -93.20388,-23.57096 -2.16303,-2.16302 -1.98525,-6.06472 0.3736,-8.19945 1.83274,-1.65861 4.43094,-1.16755 41.80055,7.9001 65.93128,15.9981 65.91801,15.99613 74.29288,11.08812 5.91681,-3.46748 9.94895,-8.8658 11.71906,-15.68977 1.24448,-4.7976 1.19693,-6.29631 -0.37786,-11.90882 -2.54832,-9.08214 -8.17751,-14.56031 -17.44252,-16.97457 -45.17785,-11.77232 -121.51034,-30.39935 -133.81299,-32.65369 -3.52,-0.64501 -14.8,-1.40846 -25.06666,-1.69656 -10.26667,-0.28809 -23.82667,-0.74577 -30.13333,-1.01705 l -11.46667,-0.49324 v 57.52668 57.52669 l 3.46667,0.5412 c 1.90666,0.29767 7.78666,1.09814 13.06666,1.77883 19.20517,2.4759 35.79095,8.73267 66.84658,25.21697 18.73209,9.94298 34.94733,17.35791 46.16295,21.10947 9.70987,3.24789 22.59749,3.48184 33.81149,0.61379 z m 5.55774,-181.03635 c -13.27023,-9.51244 -40.67759,-31.97911 -55.18455,-45.23651 -8.62406,-7.88125 -27.32755,-26.90714 -27.32755,-27.79863 0,-0.45807 -0.55416,-1.17534 -1.23147,-1.59394 -0.80221,-0.4958 -0.97426,-0.23887 -0.49358,0.73704 0.40584,0.82398 0.12001,0.58577 -0.63519,-0.52934 -0.7552,-1.11512 -3.95913,-4.95512 -7.11984,-8.53334 -22.85321,-25.87191 -40.9907,-54.955 -48.25033,-77.36841 -5.19773,-16.04749 -5.76029,-38.89811 -1.33982,-54.422344 2.99452,-10.516434 11.05304,-25.043664 17.86218,-32.200435 1.47499,-1.550279 2.4702,-3.110279 2.21159,-3.466666 -0.25862,-0.356386 -0.15436,-0.41214 0.23166,-0.123897 1.12492,0.839984 3.60981,-1.721641 2.85492,-2.943081 -0.37904,-0.613307 -0.17577,-0.795027 0.45397,-0.405827 0.62721,0.387634 1.30137,0.312996 1.49815,-0.165862 0.79526,-1.935317 12.42585,-10.219505 18.97495,-13.515407 11.9548,-6.016372 20.56016,-8.195934 34.78625,-8.81065 26.8988,-1.162309 47.89385,6.820913 66.22307,25.180858 l 7.62651,7.639296 4.23298,-4.808926 c 6.22668,-7.07387 15.57782,-14.013196 25.93164,-19.243433 12.09675,-6.110676 19.28976,-7.945343 34.04902,-8.684627 26.46046,-1.325392 45.47076,5.470305 64.12678,22.923677 26.6848,24.964585 34.70949,60.976994 21.67254,97.259844 -8.70262,24.22006 -32.13337,59.59367 -52.46599,79.20836 -3.08,2.97125 -5.6,6.01281 -5.6,6.75903 0,0.74621 -0.55416,1.69925 -1.23147,2.11785 -0.81486,0.50361 -0.93953,0.28872 -0.36853,-0.63519 0.57101,-0.92392 0.44634,-1.13881 -0.36852,-0.63519 -0.67731,0.4186 -1.23148,1.35282 -1.23148,2.07605 0,1.61126 -8.69579,10.29247 -10.30977,10.29247 -0.63928,0 -1.82112,0.84 -2.62629,1.86667 -1.35771,1.73121 -1.30913,1.75056 0.6694,0.26666 1.98534,-1.48901 2.03029,-1.46872 0.648,0.29245 -0.81694,1.04084 -1.75532,1.62247 -2.08529,1.29248 -0.32998,-0.32997 -3.74158,2.51199 -7.58134,6.31548 -20.9159,20.71832 -62.12327,52.89959 -67.7367,52.89959 -1.36792,0 -6.25758,-2.70275 -10.8659,-6.0061 z m 22.16687,-14.40071 c 10.32484,-7.86359 24.47301,-19.42426 33.02843,-26.98796 2.69906,-2.38621 7.92415,-6.97856 11.61128,-10.20523 9.23389,-8.0807 29.07085,-27.88992 36.89871,-36.84713 32.05997,-36.68531 48.11377,-65.41623 51.68715,-92.50267 4.25148,-32.22636 -13.95759,-63.791649 -45.00825,-78.021496 -10.31239,-4.725947 -16.71384,-5.96202 -30.87646,-5.96202 -14.3194,0 -19.00906,1.044137 -31.35317,6.980671 -11.44877,5.505956 -17.32533,10.227379 -26.94386,21.647636 -9.61503,11.416101 -10.82637,11.456778 -19.13118,0.642418 -9.97256,-12.986063 -25.93784,-23.528049 -41.89355,-27.662588 -7.32503,-1.898106 -27.1712,-2.147474 -35.44556,-0.445375 -7.35966,1.513938 -21.57323,8.354667 -26.98584,12.987786 -2.34666,2.008717 -5.32286,4.210736 -6.61376,4.893377 -3.61188,1.910001 -13.83127,16.151116 -17.84655,24.869843 -5.63453,12.234798 -6.40006,16.054658 -6.37681,31.819558 0.0197,13.34831 0.26725,15.1164 3.38956,24.20908 8.12638,23.66535 23.18355,47.69064 46.66417,74.45758 9.07184,10.34153 33.27908,34.84303 38.90969,39.38267 2.24027,1.80619 11.38269,9.524 20.31649,17.15066 18.76657,16.02077 33.02816,27.17298 34.76951,27.18891 0.66678,0.006 5.70678,-3.41198 11.2,-7.59572 z m -61.00883,-59.27672 c -4.21014,-3.54259 -6.3368,-8.39063 -6.3368,-14.44564 0,-5.69301 1.37387,-7.67896 16.29115,-23.54904 8.75354,-9.31265 12.77837,-14.60313 16.89426,-22.20678 8.40032,-15.51866 11.66316,-18.115 22.76524,-18.115 7.21541,0 12.83011,1.80786 15.69247,5.05278 0.97704,1.10764 4.44511,6.73434 7.7068,12.50378 6.96429,12.3188 9.51635,15.66868 18.67741,24.51633 11.55535,11.16005 15.03933,16.17899 15.03933,21.66539 0,5.54319 -3.01346,12.05443 -7.04743,15.22755 -3.75679,2.95509 -11.56784,2.94295 -27.93598,-0.0434 -15.58347,-2.84319 -27.06828,-2.83348 -43.25592,0.0366 -17.82662,3.16068 -24.13986,3.01829 -28.49053,-0.64257 z m -20.29968,-54.04566 c -18.00222,-6.43496 -27.1558,-32.68231 -13.80537,-39.58607 4.29959,-2.22342 13.47748,-2.00592 18.88084,0.44742 5.68838,2.58273 12.8915,9.95619 15.55007,15.91777 4.01406,9.00112 1.9199,19.74839 -4.49442,23.06535 -3.7765,1.95291 -10.91043,2.0217 -16.13112,0.15553 z m 123.72061,-0.97441 c -6.37896,-4.289 -7.56547,-12.76304 -3.17636,-22.68535 1.07362,-2.4271 3.09202,-5.51808 4.48533,-6.86885 1.39331,-1.35077 1.93329,-2.11702 1.19996,-1.70278 -0.73334,0.41424 -1.33334,0.56567 -1.33334,0.33652 0,-0.72939 10.17874,-7.04322 13.21665,-8.19823 4.2135,-1.60197 13.06338,-1.36575 16.55915,0.44198 9.57633,4.95211 7.92959,21.5416 -3.24782,32.71901 -8.36548,8.36548 -20.30406,10.93289 -27.70357,5.9577 z m -90.67681,-41.13559 c -12.3673,-6.53955 -19.92432,-25.7112 -15.69674,-39.82159 1.4069,-4.695792 7.20883,-10.402387 10.78627,-10.609019 9.47901,-0.547505 14.49525,1.319839 20.98863,7.813209 6.64918,6.64918 9.96142,14.48527 10.45786,24.74115 0.38638,7.98216 0.19546,8.98706 -2.47708,13.03755 -5.67787,8.60538 -13.83356,10.24564 -24.05894,4.8387 z m 54.28251,0.10592 c -4.71958,-3.66242 -6.16344,-7.54391 -6.16344,-16.56911 0,-17.80709 12.78168,-33.905391 27.09979,-34.131708 7.6076,-0.120249 11.00235,1.936586 14.13882,8.566548 2.37144,5.01279 2.6911,6.86258 2.25038,13.02221 -0.64903,9.07107 -4.46267,17.61043 -10.60385,23.74379 -8.88465,8.87335 -19.46552,10.99897 -26.7217,5.36822 z"
         id="path444" />
    </g>
  </g>
</svg>
