<svg width="512" height="512" xmlns="http://www.w3.org/2000/svg"><path style="fill:#d0d0d0" d="M279.158 485c0-1.375.227-1.938.504-1.25.278.688.278 1.813 0 2.5-.277.688-.504.125-.504-1.25zm-9.72-119.25-2.938-3.25 3.25 2.937c3.03 2.738 3.71 3.563 2.937 3.563-.172 0-1.635-1.462-3.25-3.25zm163.562.872c0-.207.787-.995 1.75-1.75 1.586-1.243 1.621-1.208.378.378-1.307 1.666-2.128 2.195-2.128 1.372zM323.437 331.75l-2.937-3.25 3.25 2.937c3.03 2.738 3.71 3.563 2.937 3.563-.172 0-1.635-1.462-3.25-3.25zm56.063.25c.995-1.1 2.035-2 2.31-2 .275 0-.315.9-1.31 2-.995 1.1-2.035 2-2.31 2-.275 0 .315-.9 1.31-2zm-116.421-39.583c.048-1.165.285-1.402.604-.604.289.721.253 1.584-.079 1.916-.332.332-.568-.258-.525-1.312zm17-24c.048-1.165.285-1.402.604-.604.289.721.253 1.584-.079 1.916-.332.332-.568-.258-.525-1.312zm143 0c.048-1.165.285-1.402.604-.604.289.721.253 1.584-.079 1.916-.332.332-.568-.258-.525-1.312zm-240.329-5.08c.688-.277 1.813-.277 2.5 0 .688.278.125.505-1.25.505s-1.938-.227-1.25-.504zm48.329-12.92c.048-1.165.285-1.402.604-.605.289.722.253 1.585-.079 1.917-.332.332-.568-.258-.525-1.312zm0-7c.048-1.165.285-1.402.604-.605.289.722.253 1.585-.079 1.917-.332.332-.568-.258-.525-1.312zM284 221.5c1.866-1.925 3.617-3.5 3.892-3.5.275 0-1.026 1.575-2.892 3.5-1.866 1.925-3.617 3.5-3.892 3.5-.275 0 1.026-1.575 2.892-3.5zm136.872 1.75c-1.243-1.586-1.208-1.621.378-.378.963.755 1.75 1.543 1.75 1.75 0 .823-.821.294-2.128-1.372zm-89.06-6.933c.722-.289 1.585-.253 1.917.079.332.332-.258.568-1.312.525-1.165-.048-1.402-.285-.604-.604zm39 0c.722-.289 1.585-.253 1.917.079.332.332-.258.568-1.312.525-1.165-.048-1.402-.285-.604-.604zm-183-16c.722-.289 1.585-.253 1.917.079.332.332-.258.568-1.312.525-1.165-.048-1.402-.285-.604-.604zm139.267-125.9c.048-1.165.285-1.402.604-.604.289.721.253 1.584-.079 1.916-.332.332-.568-.258-.525-1.312zm0-7c.048-1.165.285-1.402.604-.604.289.721.253 1.584-.079 1.916-.332.332-.568-.258-.525-1.312zM178 42.5c1.292-1.375 2.574-2.5 2.849-2.5.275 0-.557 1.125-1.849 2.5-1.292 1.375-2.574 2.5-2.849 2.5-.275 0 .557-1.125 1.849-2.5zm105.813-18.183c.721-.289 1.584-.253 1.916.079.332.332-.258.568-1.312.525-1.165-.048-1.402-.285-.604-.604z"/><path style="fill:#afafaf" d="M480.5 465c.995-1.1 2.035-2 2.31-2 .275 0-.315.9-1.31 2-.995 1.1-2.035 2-2.31 2-.275 0 .315-.9 1.31-2zm-323.688-89.683c.722-.289 1.585-.253 1.917.079.332.332-.258.568-1.312.525-1.165-.048-1.402-.285-.604-.604zm5 0c.722-.289 1.585-.253 1.917.079.332.332-.258.568-1.312.525-1.165-.048-1.402-.285-.604-.604zM240.5 305c.995-1.1 2.035-2 2.31-2 .275 0-.315.9-1.31 2-.995 1.1-2.035 2-2.31 2-.275 0 .315-.9 1.31-2zm177.372-84.75c-1.243-1.586-1.208-1.621.378-.378 1.666 1.307 2.195 2.128 1.372 2.128-.207 0-.995-.787-1.75-1.75zM104 202.622c0-.207.787-.995 1.75-1.75 1.586-1.243 1.621-1.208.378.378-1.307 1.666-2.128 2.195-2.128 1.372zm148.813-3.305c.721-.289 1.584-.253 1.916.079.332.332-.258.568-1.312.525-1.165-.048-1.402-.285-.604-.604zm5 0c.721-.289 1.584-.253 1.916.079.332.332-.258.568-1.312.525-1.165-.048-1.402-.285-.604-.604zM200.5 26c.995-1.1 2.035-2 2.31-2 .275 0-.315.9-1.31 2-.995 1.1-2.035 2-2.31 2-.275 0 .315-.9 1.31-2z"/><path style="fill:#8f8f8f" d="M491 477.622c0-.207.787-.995 1.75-1.75 1.586-1.243 1.621-1.208.378.378-1.307 1.666-2.128 2.195-2.128 1.372zM112.5 417c.995-1.1 2.035-2 2.31-2 .275 0-.315.9-1.31 2-.995 1.1-2.035 2-2.31 2-.275 0 .315-.9 1.31-2zm93.905-.25-1.905-2.25 2.25 1.905c2.114 1.79 2.705 2.595 1.905 2.595-.19 0-1.202-1.012-2.25-2.25zm98.095.25c.995-1.1 2.035-2 2.31-2 .275 0-.315.9-1.31 2-.995 1.1-2.035 2-2.31 2-.275 0 .315-.9 1.31-2zm93.905-.25-1.905-2.25 2.25 1.905c1.238 1.048 2.25 2.06 2.25 2.25 0 .8-.805.21-2.595-1.905zm-51.592-41.433c.721-.289 1.584-.253 1.916.079.332.332-.258.568-1.312.525-1.165-.048-1.402-.285-.604-.604zm9 0c.721-.289 1.584-.253 1.916.079.332.332-.258.568-1.312.525-1.165-.048-1.402-.285-.604-.604zM62.404 304.75 60.5 302.5l2.25 1.905c1.238 1.048 2.25 2.06 2.25 2.25 0 .8-.805.21-2.595-1.905zm344.467-72.5c-1.243-1.586-1.208-1.621.378-.378.963.755 1.75 1.543 1.75 1.75 0 .823-.821.294-2.128-1.372zM142.405 64.75 140.5 62.5l2.25 1.905c2.114 1.79 2.705 2.595 1.905 2.595-.19 0-1.202-1.012-2.25-2.25zm182.467-38.5c-1.243-1.586-1.208-1.621.378-.378 1.666 1.307 2.195 2.128 1.372 2.128-.207 0-.995-.787-1.75-1.75z"/><path style="fill:#6d6d6d" d="m247.946 413.25-3.446-3.75 3.75 3.446c3.49 3.208 4.21 4.054 3.446 4.054-.167 0-1.854-1.688-3.75-3.75zm32.926-59c-1.243-1.586-1.208-1.621.378-.378 1.666 1.307 2.195 2.128 1.372 2.128-.207 0-.995-.787-1.75-1.75zm31-11c-1.243-1.586-1.208-1.621.378-.378 1.666 1.307 2.195 2.128 1.372 2.128-.207 0-.995-.787-1.75-1.75zM390 344.622c0-.207.787-.995 1.75-1.75 1.586-1.243 1.621-1.208.378.378-1.307 1.666-2.128 2.195-2.128 1.372z"/><path style="fill:#4d4d4d" d="M62 466.622c0-.207.787-.995 1.75-1.75 1.586-1.243 1.621-1.208.378.378-1.307 1.666-2.128 2.195-2.128 1.372zm385.872-1.372c-1.243-1.586-1.208-1.621.378-.378.963.755 1.75 1.543 1.75 1.75 0 .823-.821.294-2.128-1.372zM68 416.687c0-.172 1.462-1.635 3.25-3.25l3.25-2.937-2.937 3.25c-2.738 3.03-3.563 3.71-3.563 2.937zm371.924-3.437-2.424-2.75 2.75 2.424c2.57 2.266 3.209 3.076 2.424 3.076-.179 0-1.416-1.238-2.75-2.75zM422 354.5c1.292-1.375 2.574-2.5 2.849-2.5.275 0-.557 1.125-1.849 2.5-1.292 1.375-2.574 2.5-2.849 2.5-.275 0 .557-1.125 1.849-2.5zM203.5 348c.995-1.1 2.035-2 2.31-2 .275 0-.315.9-1.31 2-.995 1.1-2.035 2-2.31 2-.275 0 .315-.9 1.31-2z"/><path style="fill:#323232" d="m136.946 484.25-3.446-3.75 3.75 3.446c3.49 3.208 4.21 4.054 3.446 4.054-.167 0-1.854-1.688-3.75-3.75zM192.5 474c7.685-7.7 14.198-14 14.473-14 .275 0-5.788 6.3-13.473 14-7.685 7.7-14.198 14-14.473 14-.275 0 5.788-6.3 13.473-14zm136.446 10.25-3.446-3.75 3.75 3.446c2.063 1.896 3.75 3.583 3.75 3.75 0 .764-.846.044-4.054-3.446zM384.5 474c7.685-7.7 14.198-14 14.473-14 .275 0-5.788 6.3-13.473 14-7.685 7.7-14.198 14-14.473 14-.275 0 5.788-6.3 13.473-14zm-89.305 10.5c.02-1.65.244-2.204.498-1.231.254.973.237 2.323-.037 3-.274.677-.481-.119-.461-1.769zM140.99 466.25 122.5 447.5l18.705 18.445 18.706 18.446 2.294-1.946 2.295-1.945-1.905 2.25c-1.048 1.238-2.177 2.25-2.51 2.25-.333 0-8.926-8.438-19.095-18.75zm192 0L314.5 447.5l18.705 18.445 18.706 18.446 2.294-1.946 2.295-1.945-1.905 2.25c-1.048 1.238-2.177 2.25-2.51 2.25-.333 0-8.926-8.438-19.095-18.75zm-202.585 11.5-1.905-2.25 2.25 1.905c2.114 1.79 2.705 2.595 1.905 2.595-.19 0-1.202-1.012-2.25-2.25zm36.095.25c.995-1.1 2.035-2 2.31-2 .275 0-.315.9-1.31 2-.995 1.1-2.035 2-2.31 2-.275 0 .315-.9 1.31-2zm155.905-.25-1.905-2.25 2.25 1.905c2.114 1.79 2.705 2.595 1.905 2.595-.19 0-1.202-1.012-2.25-2.25zm36.095.25c.995-1.1 2.035-2 2.31-2 .275 0-.315.9-1.31 2-.995 1.1-2.035 2-2.31 2-.275 0 .315-.9 1.31-2zm-235.628-7.75c-1.243-1.586-1.208-1.621.378-.378.963.755 1.75 1.543 1.75 1.75 0 .823-.821.294-2.128-1.372zM173 471.622c0-.207.787-.995 1.75-1.75 1.586-1.243 1.621-1.208.378.378-1.307 1.666-2.128 2.195-2.128 1.372zm141.872-1.372c-1.243-1.586-1.208-1.621.378-.378 1.666 1.307 2.195 2.128 1.372 2.128-.207 0-.995-.787-1.75-1.75zM365 471.622c0-.207.787-.995 1.75-1.75 1.586-1.243 1.621-1.208.378.378-1.307 1.666-2.128 2.195-2.128 1.372zm-247.076-6.372-2.424-2.75 2.75 2.424c2.57 2.266 3.209 3.076 2.424 3.076-.179 0-1.416-1.238-2.75-2.75zm61.076.25c1.292-1.375 2.574-2.5 2.849-2.5.275 0-.557 1.125-1.849 2.5-1.292 1.375-2.574 2.5-2.849 2.5-.275 0 .557-1.125 1.849-2.5zm130.924-.25-2.424-2.75 2.75 2.424c2.57 2.266 3.209 3.076 2.424 3.076-.179 0-1.416-1.238-2.75-2.75zm61.076.25c1.292-1.375 2.574-2.5 2.849-2.5.275 0-.557 1.125-1.849 2.5-1.292 1.375-2.574 2.5-2.849 2.5-.275 0 .557-1.125 1.849-2.5zm-188-3.878c0-.207.787-.995 1.75-1.75 1.586-1.243 1.621-1.208.378.378-1.307 1.666-2.128 2.195-2.128 1.372zm192 0c0-.207.787-.995 1.75-1.75 1.586-1.243 1.621-1.208.378.378-1.307 1.666-2.128 2.195-2.128 1.372zm-188-4c0-.207.787-.995 1.75-1.75 1.586-1.243 1.621-1.208.378.378-1.307 1.666-2.128 2.195-2.128 1.372zm192 0c0-.207.787-.995 1.75-1.75 1.586-1.243 1.621-1.208.378.378-1.307 1.666-2.128 2.195-2.128 1.372zM192.5 452c.995-1.1 2.035-2 2.31-2 .275 0-.315.9-1.31 2-.995 1.1-2.035 2-2.31 2-.275 0 .315-.9 1.31-2zm192 0c.995-1.1 2.035-2 2.31-2 .275 0-.315.9-1.31 2-.995 1.1-2.035 2-2.31 2-.275 0 .315-.9 1.31-2zm-214-20c2.709-2.75 5.15-5 5.425-5 .275 0-1.716 2.25-4.425 5-2.709 2.75-5.15 5-5.425 5-.275 0 1.716-2.25 4.425-5zm192 0c2.709-2.75 5.15-5 5.425-5 .275 0-1.716 2.25-4.425 5-2.709 2.75-5.15 5-5.425 5-.275 0 1.716-2.25 4.425-5zm-216.063-2.25-2.937-3.25 3.25 2.937c1.788 1.615 3.25 3.078 3.25 3.25 0 .773-.825.092-3.563-2.937zm192 0-2.937-3.25 3.25 2.937c1.788 1.615 3.25 3.078 3.25 3.25 0 .773-.825.092-3.563-2.937zm-181.032-11-1.905-2.25 2.25 1.905c2.213 1.873 2.287 1.873 4.5 0l2.25-1.905-1.905 2.25c-1.048 1.238-2.215 2.25-2.595 2.25-.38 0-1.547-1.012-2.595-2.25zm192 0-1.905-2.25 2.25 1.905c2.213 1.873 2.287 1.873 4.5 0l2.25-1.905-1.905 2.25c-1.048 1.238-2.215 2.25-2.595 2.25-.38 0-1.547-1.012-2.595-2.25zm94.467-1.5c-1.243-1.586-1.208-1.621.378-.378 1.666 1.307 2.195 2.128 1.372 2.128-.207 0-.995-.787-1.75-1.75zM74 410.622c0-.207.787-.995 1.75-1.75 1.586-1.243 1.621-1.208.378.378-1.307 1.666-2.128 2.195-2.128 1.372zm361.872-1.372c-1.243-1.586-1.208-1.621.378-.378 1.666 1.307 2.195 2.128 1.372 2.128-.207 0-.995-.787-1.75-1.75zM61 401.622c0-.207.787-.995 1.75-1.75 1.586-1.243 1.621-1.208.378.378-1.307 1.666-2.128 2.195-2.128 1.372zm387.872-1.372c-1.243-1.586-1.208-1.621.378-.378.963.755 1.75 1.543 1.75 1.75 0 .823-.821.294-2.128-1.372zm-294.06-8.933c.722-.289 1.585-.253 1.917.079.332.332-.258.568-1.312.525-1.165-.048-1.402-.285-.604-.604zm9 0c.722-.289 1.585-.253 1.917.079.332.332-.258.568-1.312.525-1.165-.048-1.402-.285-.604-.604zm183 0c.722-.289 1.585-.253 1.917.079.332.332-.258.568-1.312.525-1.165-.048-1.402-.285-.604-.604zm9 0c.722-.289 1.585-.253 1.917.079.332.332-.258.568-1.312.525-1.165-.048-1.402-.285-.604-.604zm-86.36-26.567-3.952-4.25 4.25 3.953c3.952 3.676 4.71 4.547 3.953 4.547-.163 0-2.076-1.913-4.25-4.25zM433 365.5c1.866-1.925 3.617-3.5 3.892-3.5.275 0-1.026 1.575-2.892 3.5-1.866 1.925-3.617 3.5-3.892 3.5-.275 0 1.026-1.575 2.892-3.5zm-292.188-6.183c.722-.289 1.585-.253 1.917.079.332.332-.258.568-1.312.525-1.165-.048-1.402-.285-.604-.604zm37 0c.722-.289 1.585-.253 1.917.079.332.332-.258.568-1.312.525-1.165-.048-1.402-.285-.604-.604zm170 0c.722-.289 1.585-.253 1.917.079.332.332-.258.568-1.312.525-1.165-.048-1.402-.285-.604-.604zm7 0c.722-.289 1.585-.253 1.917.079.332.332-.258.568-1.312.525-1.165-.048-1.402-.285-.604-.604zM59 351.5c1.866-1.925 3.617-3.5 3.892-3.5.275 0-1.026 1.575-2.892 3.5-1.866 1.925-3.617 3.5-3.892 3.5-.275 0 1.026-1.575 2.892-3.5zm392.946-.25-3.446-3.75 3.75 3.446c2.063 1.896 3.75 3.583 3.75 3.75 0 .764-.846.044-4.054-3.446zM46 342.5c3.543-3.575 6.667-6.5 6.942-6.5.275 0-2.399 2.925-5.942 6.5s-6.667 6.5-6.942 6.5c-.275 0 2.399-2.925 5.942-6.5zm418.971-.25-6.471-6.75 6.75 6.471c3.712 3.56 6.75 6.597 6.75 6.75 0 .736-1.018-.201-7.029-6.471zM250 322.5c1.292-1.375 2.574-2.5 2.849-2.5.275 0-.557 1.125-1.849 2.5-1.292 1.375-2.574 2.5-2.849 2.5-.275 0 .557-1.125 1.849-2.5zm29.079-29.083c.048-1.165.285-1.402.604-.604.289.721.253 1.584-.079 1.916-.332.332-.568-.258-.525-1.312zm145 0c.048-1.165.285-1.402.604-.604.289.721.253 1.584-.079 1.916-.332.332-.568-.258-.525-1.312zm-241.329-14.08c.688-.277 1.813-.277 2.5 0 .688.278.125.505-1.25.505s-1.938-.227-1.25-.504zm81.329-11.92c.048-1.165.285-1.402.604-.604.289.721.253 1.584-.079 1.916-.332.332-.568-.258-.525-1.312zm-17-17c.048-1.165.285-1.402.604-.604.289.721.253 1.584-.079 1.916-.332.332-.568-.258-.525-1.312zM315.5 249c.995-1.1 2.035-2 2.31-2 .275 0-.315.9-1.31 2-.995 1.1-2.035 2-2.31 2-.275 0 .315-.9 1.31-2zm-243.421-1.583c.048-1.165.285-1.402.604-.604.289.721.253 1.584-.079 1.916-.332.332-.568-.258-.525-1.312zm0-6c.048-1.165.285-1.402.604-.604.289.721.253 1.584-.079 1.916-.332.332-.568-.258-.525-1.312zM82.5 219c.995-1.1 2.035-2 2.31-2 .275 0-.315.9-1.31 2-.995 1.1-2.035 2-2.31 2-.275 0 .315-.9 1.31-2zm168.313-3.683c.721-.289 1.584-.253 1.916.079.332.332-.258.568-1.312.525-1.165-.048-1.402-.285-.604-.604zm9 0c.721-.289 1.584-.253 1.916.079.332.332-.258.568-1.312.525-1.165-.048-1.402-.285-.604-.604zm-23-32c.721-.289 1.584-.253 1.916.079.332.332-.258.568-1.312.525-1.165-.048-1.402-.285-.604-.604zm37 0c.721-.289 1.584-.253 1.916.079.332.332-.258.568-1.312.525-1.165-.048-1.402-.285-.604-.604zM139 111.5c1.866-1.925 3.617-3.5 3.892-3.5.275 0-1.026 1.575-2.892 3.5-1.866 1.925-3.617 3.5-3.892 3.5-.275 0 1.026-1.575 2.892-3.5zm-13-9c3.543-3.575 6.667-6.5 6.942-6.5.275 0-2.399 2.925-5.942 6.5s-6.667 6.5-6.942 6.5c-.275 0 2.399-2.925 5.942-6.5zm217.079-28.083c.048-1.165.285-1.402.604-.604.289.721.253 1.584-.079 1.916-.332.332-.568-.258-.525-1.312zm-175-3c.048-1.165.285-1.402.604-.604.289.721.253 1.584-.079 1.916-.332.332-.568-.258-.525-1.312z"/><path style="fill:#000" d="M72 491.615v-12.384l-6.25 3.306c-24.415 12.913-52.584-1.35-56.856-28.788-.59-3.786-.855-31.212-.666-68.773.365-72.418-.187-68.167 10.193-78.565 4.576-4.583 7.439-6.54 11.579-7.915 21.419-7.112 41.473 7.004 41.301 29.072-.062 8.053-2.805 14.013-9.85 21.397l-5.634 5.908 2.156 23.295c1.185 12.812 2.336 23.475 2.557 23.695.22.22 2.886-1.87 5.923-4.646 11.584-10.587 30.273-20.857 46.426-25.51 4.608-1.329 8.72-3.043 9.139-3.811.418-.768 1.342-4.032 2.054-7.254 1.21-5.476 1.17-5.927-.628-6.933-4.313-2.414-11.364-10.083-14.225-15.472-3.155-5.944-5.219-14.555-5.219-21.776v-4.17l-7.179-.603c-8.875-.744-15.154-3.791-19.47-9.45-5.85-7.67-6.362-19.497-1.154-26.667l2.128-2.93-2.827-11.57c-4.836-19.793-3.078-30.01 7.046-40.945l5.374-5.805.31-65.91c.359-76.324-.234-71.555 10.193-82 4.576-4.583 7.439-6.54 11.579-7.915 21.419-7.112 41.473 7.004 41.301 29.072-.062 8.052-2.805 14.012-9.844 21.392l-5.63 5.903 3.093 33.818c1.702 18.6 3.091 34.269 3.088 34.819-.004.64 9.245 1.004 25.743 1.01 27.803.01 32.311.629 44.175 6.057 6.258 2.864 6.29 2.841 8.128-5.82 1.183-5.574 1.14-6.06-.63-7.05-4.295-2.403-11.35-10.082-14.205-15.46-3.155-5.944-5.219-14.555-5.219-21.776v-4.17l-7.179-.603c-8.875-.744-15.154-3.791-19.47-9.45-5.85-7.67-6.362-19.497-1.154-26.667l2.128-2.93-2.593-11.07c-3.662-15.634-3.798-16.848-2.613-23.258 2.175-11.767 9.58-21.366 20.413-26.46 3.82-1.798 7.385-4.457 9.725-7.256 5.281-6.318 17.365-14.047 27.028-17.287 8.176-2.74 8.35-2.754 36.215-2.782 26.559-.027 28.386.092 35.5 2.304 15.1 4.694 26.427 13.043 34.918 25.738 10.14 15.16 13.045 33.863 8.1 52.153l-2.223 8.223 2.27 4.687c2.679 5.534 3 14.046.73 19.367-3.807 8.928-11.236 13.734-22.717 14.697l-7.078.593v4.171c0 7.221-2.064 15.832-5.22 21.776-2.86 5.39-9.91 13.058-14.224 15.472-1.798 1.006-1.838 1.455-.625 6.933 1.783 8.045 2.458 9.022 6.792 9.827 2.077.386 7.884 2.236 12.903 4.111 9.05 3.382 9.195 3.401 17.42 2.294 13.311-1.791 47.599-.605 57.254 1.98 24.842 6.654 44.327 26.2 50.845 51.002 1.466 5.581 2.223 12.907 2.802 27.144.584 14.335 1.251 20.758 2.518 24.25.948 2.612 1.894 4.75 2.103 4.75.209 0 2.304-1.922 4.656-4.27 12.99-12.974 32.846-12.187 45.636 1.807 8.953 9.796 8.554 6.33 8.912 77.439.189 37.561-.077 64.987-.666 68.773-2.734 17.56-15.425 30.444-32.785 33.285-7.76 1.27-16.12-.292-24.071-4.497L440 479.23V504H72zm53.254-19.89c-18.164-18.285-20.476-21.901-20.555-32.157-.14-18.022 12.847-31.01 30.87-30.87 7.523.06 13.677 2.644 19.857 8.34l4.574 4.217 4.574-4.217c6.18-5.696 12.334-8.28 19.858-8.34 18.022-.14 31.01 12.848 30.87 30.87-.08 10.256-2.392 13.872-20.556 32.157L178.58 488H232v-48h16v48h32.3l-.638-8.75c-3.123-42.868-36.074-82.236-77.963-93.146l-7.8-2.032-8.992 3.013c-17.162 5.75-32.652 5.75-49.814 0l-8.992-3.013-7.8 2.012c-17.174 4.429-38.056 17.173-50.217 30.647l-5.993 6.64.59 7.66.592 7.66-4.776.654c-8.68 1.19-10.495.915-10.513-1.595-.009-1.238-.907-11.925-1.996-23.75-1.088-11.825-1.981-21.613-1.983-21.75-.003-.137-4.505-.25-10.005-.25H24v31.032c0 34.223.175 35.383 6.3 41.84 4.573 4.82 10.079 7.085 17.2 7.078 8.423-.01 13.75-2.927 19.75-10.818 4.682-6.157 4.75-6.355 4.75-13.69V440h16v48h53.421zm192 0c-18.164-18.285-20.476-21.901-20.555-32.157-.14-18.022 12.847-31.01 30.87-30.87 7.523.06 13.677 2.644 19.857 8.34l4.574 4.217 4.574-4.217c6.18-5.696 12.334-8.28 19.858-8.34 18.022-.14 31.01 12.848 30.87 30.87-.08 10.256-2.392 13.872-20.556 32.157L370.58 488H424v-48h16v7.442c0 7.335.069 7.533 4.75 13.69 6 7.89 11.327 10.81 19.75 10.818 7.121.007 12.627-2.258 17.2-7.078 6.125-6.457 6.3-7.617 6.3-41.84V392h-19.773l-.582 4.25c-.32 2.337-1.351 13.137-2.291 24l-1.71 19.75h-2.682c-1.476 0-4.832-.295-7.459-.655l-4.776-.654.591-7.66.59-7.66-5.902-6.54c-13.195-14.62-32.472-26.136-52.316-31.254-5.706-1.472-5.97-1.445-14.793 1.51-17.152 5.747-32.645 5.746-49.804-.002l-8.992-3.013-7.8 2.032c-13.316 3.468-27.891 11.147-41.11 21.658l-2.31 1.836 7.363 11.02c12.02 17.99 19.228 37.923 20.389 56.382.293 4.675.707 9.063.919 9.75.29.942 5.006 1.25 19.127 1.25h18.742l-16.167-16.275zm-137.522-6.006c12.04-12.142 19.378-20.31 19.817-22.06 2.352-9.37-3.18-18.412-11.865-19.391-6.974-.786-9.116.198-17.249 7.924-9.94 9.442-10.93 9.442-20.87 0-8.133-7.726-10.275-8.71-17.249-7.924-8.684.979-14.217 10.021-11.865 19.391.439 1.75 7.776 9.918 19.817 22.06C150.784 476.324 159.664 485 160 485c.336 0 9.216-8.676 19.732-19.281zm192 0c12.04-12.142 19.378-20.31 19.817-22.06 2.352-9.37-3.18-18.412-11.865-19.391-6.974-.786-9.116.198-17.249 7.924-9.94 9.442-10.93 9.442-20.87 0-8.133-7.726-10.275-8.71-17.249-7.924-8.684.979-14.217 10.021-11.865 19.391.439 1.75 7.776 9.918 19.817 22.06C342.784 476.324 351.664 485 352 485c.336 0 9.216-8.676 19.732-19.281zm80.262-64.969c-.003-.688.947-11.305 2.11-23.595l2.116-22.346-3.813-3.904c-2.097-2.148-4.06-3.901-4.36-3.896-.3.005-2.263 2.672-4.36 5.928-4.04 6.271-17.165 19.46-22.503 22.614-1.751 1.034-3.184 2.192-3.184 2.573 0 .38 3.038 2.356 6.75 4.39 7.835 4.292 18.466 11.98 22.687 16.406 3.129 3.281 4.566 3.858 4.557 1.83zm-189.245-7.222c3.713-3.009 10.464-7.563 15.001-10.12 4.538-2.558 8.25-4.933 8.248-5.279 0-.346-1.969-1.872-4.373-3.39-6.154-3.888-19.46-18.05-24.026-25.571-2.114-3.483-5.362-9.988-7.218-14.456l-3.375-8.123 2.872-3.044c4.856-5.149 8.955-11.493 11.243-17.4 1.838-4.746 2.305-8.671 2.932-24.645.861-21.922 2.333-29.531 7.932-41 4.866-9.967 11.861-18.51 20.473-25l6.633-5-4.295-1.276c-3.97-1.179-5.006-1.042-13.638 1.804-11.827 3.9-22.64 5.174-33.408 3.936-4.537-.522-8.51-.952-8.83-.956-.318-.004.688 2.58 2.237 5.742 6.527 13.33 7.931 29.889 3.81 44.927l-2.232 8.144 2.3 4.75c2.709 5.597 3.042 14.081.76 19.429-3.807 8.928-11.236 13.734-22.717 14.697l-7.078.593v4.171c0 7.221-2.064 15.832-5.22 21.776-2.86 5.39-9.91 13.058-14.224 15.472-1.797 1.006-1.838 1.457-.628 6.933.712 3.222 1.636 6.486 2.054 7.254.419.768 4.531 2.477 9.14 3.8 11.641 3.338 28.842 11.852 38.514 19.062 4.475 3.336 8.44 6.555 8.81 7.154.971 1.572.922 1.598 8.303-4.384zM41.37 362.78l-1.216-13.22 7.393-7.738c7.972-8.344 8.975-10.49 8.184-17.506-.398-3.531-1.335-5.386-4.14-8.19-3.457-3.458-3.94-3.626-10.437-3.626-5.855 0-7.306.378-10.342 2.694C24.313 320.15 24 321.769 24 350.4V376h18.586zm136.47 10.76c5.888-1.843 5.633-.984 3.132-10.54l-.915-3.5h-40.116l-.915 3.5c-2.512 9.597-2.772 8.734 3.129 10.382 2.939.82 6.244 1.72 7.344 2 4.082 1.034 23.103-.202 28.342-1.842zm187.962.931c9.76-2.228 9.613-2.045 7.72-9.571-.884-3.52-1.786-6.927-2.004-7.57-.293-.868-1.64-.786-5.207.32-2.836.878-8.713 1.49-14.312 1.49s-11.476-.612-14.312-1.49c-3.566-1.106-4.914-1.188-5.207-.32-1.497 4.426-3.491 13.993-3.017 14.468.317.317 3.605 1.366 7.306 2.331 8.418 2.196 20.299 2.336 29.033.342zM488 350.401c0-28.632-.313-30.25-6.813-35.207-3.036-2.316-4.487-2.694-10.342-2.694-6.496 0-6.98.168-10.437 3.625-2.805 2.805-3.742 4.66-4.14 8.191-.791 7.016.212 9.162 8.184 17.506l7.393 7.738-1.216 13.22-1.215 13.22H488zm-174.675 18.646c.453-.438 1.912-5.078 3.24-10.31l2.416-9.515-6.24-6.376c-6.817-6.966-11.575-15.036-14.355-24.346-2.23-7.47-2.532-29.239-.52-37.5 2.303-9.461 8.685-21.472 14.916-28.072l5.718-6.056 9.5 4.441c20.721 9.687 40.162 15.58 66 20.003l13.5 2.31-.053 19.437c-.042 15.641-.401 20.609-1.838 25.437-2.769 9.3-7.529 17.376-14.351 24.347l-6.243 6.379 2.016 8.137c2.865 11.564 3.273 12.284 7.403 13.059 2.959.555 4.779.049 10.329-2.87 13.814-7.268 24.041-17.53 31.097-31.205l3.36-6.512-2.976-4.168c-8.867-12.416-11.207-21.303-12.157-46.167-.632-16.55-1.129-21.006-2.879-25.832-6.457-17.81-21.178-31.382-39.253-36.193-7.75-2.062-52.16-2.062-59.91 0-18.13 4.825-32.762 18.29-39.22 36.093-1.79 4.932-2.276 9.22-2.886 25.432-.403 10.725-1.295 21.75-1.981 24.5-1.71 6.85-6.166 16.57-10.124 22.082l-3.294 4.586 3.48 6.521c7.007 13.131 17.983 24.07 30.98 30.877 5.094 2.668 7.257 3.282 10 2.841 1.925-.31 3.871-.921 4.325-1.36zM186 341.916c6.048-2.742 8.813-5.458 11.623-11.416 2.258-4.79 2.358-5.95 2.367-27.54l.01-22.54-15.25-1.143c-17.49-1.31-28.676-4.12-41.054-10.312l-7.805-3.904-7.923 5.22-7.923 5.219v25c0 23.027.16 25.355 2.04 29.5 2.741 6.048 5.457 8.813 11.415 11.623 4.772 2.25 5.98 2.357 26.5 2.345 19.488-.01 21.921-.203 26-2.052zm183-1.573c8.273-3.923 15.388-11.025 19.38-19.343 2.959-6.164 3.138-7.224 3.459-20.504l.338-14.004-12.338-2.35c-15.06-2.866-31.757-7.832-46.136-13.72-5.939-2.432-11.207-4.422-11.708-4.422-1.478 0-6.074 8.586-8.182 15.286-1.627 5.17-1.901 8.482-1.634 19.714.301 12.678.509 13.896 3.408 20 3.422 7.207 10.677 15.041 16.913 18.263 7.386 3.816 11.689 4.725 21 4.44 7.64-.235 9.983-.743 15.5-3.36zM104 288v-8h-5.686C91.238 280 88 282.468 88 287.86c0 5.654 3.107 8.14 10.174 8.14H104zm125.686 5.826c3.053-2.869 3.12-8.34.14-11.512-1.79-1.905-3.204-2.314-8-2.314H216v16h5.686c4.46 0 6.184-.468 8-2.174zm-106.478-38.37 12.708-8.408 7.292 4.309c17.846 10.546 27.204 12.536 60.578 12.881l25.287.262 1.463-4.931c2.065-6.958 1.868-19.094-.43-26.478-4.627-14.863-17.327-27.272-32.315-31.571-4.805-1.379-10.03-1.587-33-1.316-25.506.3-27.65.467-32.791 2.552-7.066 2.865-14.32 8.401-19.444 14.842-3.208 4.033-5.148 5.453-9.28 6.793-6.518 2.115-11.019 5.833-13.396 11.068-2 4.4-2.407 12.017-.938 17.541.511 1.925 1.396 5.3 1.965 7.5l1.034 4 9.28-.319 9.279-.318zm-.465-65.21c3.408-1.4 4.247-2.241 4.238-4.246-.006-1.375-1.544-19.138-3.416-39.473l-3.404-36.974 7.39-7.734c7.969-8.341 8.972-10.487 8.181-17.503-.398-3.531-1.335-5.386-4.14-8.19-3.457-3.458-3.94-3.626-10.437-3.626-5.855 0-7.306.378-10.342 2.694-7.057 5.382-6.813 2.924-6.813 68.725v59.117l7.247-5.52c3.986-3.038 9.16-6.308 11.496-7.27zm151.099 7.294c5.887-1.843 5.632-.984 3.131-10.54l-.915-3.5h-40.116l-.915 3.5c-2.512 9.597-2.772 8.734 3.129 10.382 2.939.82 6.244 1.72 7.344 2 4.082 1.034 23.103-.202 28.342-1.842zM282 165.916c6.048-2.742 8.813-5.458 11.623-11.416 2.317-4.914 2.358-5.53 2.367-35.844l.01-30.844 14.536.344 14.537.344 1.463-4.932c2.065-6.956 1.868-19.093-.43-26.477-4.627-14.863-17.327-27.272-32.315-31.571-4.805-1.379-10.03-1.587-33-1.316-25.506.3-27.65.467-32.791 2.552-7.066 2.865-14.32 8.401-19.444 14.842-3.208 4.033-5.148 5.453-9.28 6.793-6.518 2.114-11.019 5.833-13.396 11.068-2 4.4-2.407 12.017-.938 17.541.511 1.925 1.395 5.3 1.964 7.5l1.033 4 14.03-.326L216 87.85l.022 30.825c.02 28.864.152 31.112 2.062 35.326 2.742 6.048 5.458 8.813 11.416 11.623 4.772 2.25 5.98 2.357 26.5 2.345 19.488-.01 21.921-.203 26-2.052zm-48.499-81.913C229.376 75.765 226 68.666 226 68.227c0-.439 2.924-2.24 6.499-4.002l6.498-3.205 7.502 14.977C250.624 84.235 254 91.334 254 91.773c0 .439-2.924 2.24-6.499 4.002l-6.498 3.205zm32 0C261.376 75.765 258 68.666 258 68.227c0-.439 2.924-2.24 6.499-4.002l6.498-3.205 7.502 14.977C282.624 84.235 286 91.334 286 91.773c0 .439-2.924 2.24-6.499 4.002l-6.498 3.205zM200 112v-8h-5.686c-7.076 0-10.314 2.468-10.314 7.86 0 5.654 3.107 8.14 10.174 8.14H200zm125.686 5.826c3.053-2.869 3.12-8.34.14-11.512-1.79-1.905-3.204-2.314-8-2.314H312v16h5.686c4.46 0 6.184-.468 8-2.174z"/></svg>